<svg xmlns="http://www.w3.org/2000/svg" xmlns:xlink="http://www.w3.org/1999/xlink" version="1.1" width="500" height="150" viewBox="0 0 500 150" xml:space="preserve">
<desc>Created with Fabric.js 3.6.3</desc>
<defs>
</defs>
<g transform="matrix(1 0 0 1 320.9504386804675 74.60218955442804)" style="" id="uiduxpkcg13p">
		
<g xml:space="preserve" style="stroke: rgb(64,10,114); stroke-width: 0; stroke-dasharray:none; stroke-linecap: butt; stroke-dashoffset: 0; stroke-linejoin: miter; stroke-miterlimit: 4; fill: rgb(168,9,196); fill-rule: nonzero; opacity: 1; white-space: pre;"><path d="M-147.76-22.26Q-146.03-22.26-144.61-21.87Q-143.20-21.49-143.20-20.33L-143.20-20.33L-143.20-16.27Q-143.20-15.95-143.90-15.95L-143.90-15.95Q-146.48-15.95-148.86-16.14L-148.86-16.14Q-152.21-16.27-153.88-16.27L-153.88-16.27Q-154.33-16.27-155.17-16.11Q-156.00-15.95-156.52-15.95L-156.52-15.95Q-156.84-15.95-158.19-16.11Q-159.54-16.27-160.70-16.27L-160.70-16.27Q-163.47-16.27-163.47-15.11L-163.47-15.11L-163.47-9.90Q-163.53-9.84-163.66-9.61Q-163.79-9.39-163.79-9.19L-163.79-9.19Q-163.79-4.30-163.08-3.60L-163.08-3.60Q-160.38-3.14-155.36-3.14L-155.36-3.14L-151.11-3.21Q-150.79-3.08-149.66-2.50Q-148.54-1.92-148.28-1.92L-148.28-1.92Q-148.15-1.92-147.80-2.18Q-147.44-2.44-147.12-2.44L-147.12-2.44Q-147.06-2.44-146.93-2.28Q-146.80-2.11-146.80-1.99L-146.80-1.99Q-147.38-1.21-147.54-0.80Q-147.70-0.38-147.76 0.23Q-147.83 0.85-147.96 1.55L-147.96 1.55Q-148.15 2.45-152.53 2.45L-152.53 2.45Q-154.26 2.45-156.97 1.81L-156.97 1.81Q-159.80 1.17-161.47 1.17L-161.47 1.17Q-161.99 1.17-162.24 0.97Q-162.50 0.78-162.63 0.78L-162.63 0.78Q-163.66 0.78-163.95 1.10Q-164.24 1.42-164.24 2.52L-164.24 2.52Q-164.24 4.19-164.05 7.02Q-163.85 9.86-163.47 9.92L-163.47 9.92L-163.47 20.99Q-163.47 21.83-164.63 21.83L-164.63 21.83Q-165.08 21.83-165.40 21.44L-165.40 21.44Q-165.59 21.50-166.75 21.86Q-167.91 22.21-168.87 22.21L-168.87 22.21Q-169.20 22.21-169.71 21.60Q-170.23 20.99-170.23 20.67L-170.23 20.67Q-170.23 18.93-169.84 15.20L-169.84 15.20Q-169.39 11.92-169.39 9.66L-169.39 9.66L-169.39 6.32L-169.77 5.93L-169.77-19.43Q-170.29-19.56-170.29-20.33L-170.29-20.33L-170.29-20.65Q-170.29-21.74-169.39-21.87L-169.39-21.87L-167.46-21.49Q-167.26-21.49-166.98-21.62Q-166.69-21.74-166.56-21.87L-166.56-21.87L-166.56-21.55Q-164.24-21.55-161.31-21.68Q-158.38-21.81-157.22-21.87L-157.22-21.87Q-150.92-22.26-147.76-22.26L-147.76-22.26ZM-149.95-18.72Q-149.76-18.78-149.21-19.01Q-148.67-19.23-148.28-19.56Q-147.89-19.88-147.89-20.33L-147.89-20.33L-149.95-20.33Q-150.08-20.20-150.21-19.81Q-150.34-19.43-150.34-19.11L-150.34-19.11Q-150.34-18.98-150.18-18.85Q-150.02-18.72-149.95-18.72L-149.95-18.72ZM-155.55-18.65Q-154.84-18.65-154.01-19.20Q-153.17-19.75-153.04-19.88L-153.04-19.88L-155.81-19.88Q-155.94-19.88-156.13-19.59Q-156.32-19.30-156.32-19.11L-156.32-19.11Q-156.32-18.65-155.55-18.65L-155.55-18.65ZM-146.80-18.72Q-146.80-18.46-146.16-18.27Q-145.51-18.08-144.68-18.08L-144.68-18.08Q-144.68-18.85-144.84-19.17Q-145.00-19.49-145.58-19.49L-145.58-19.49Q-146.03-19.49-146.28-19.33Q-146.54-19.17-146.80-18.72L-146.80-18.72ZM-165.40-19.43L-168.68-19.43Q-168.68-18.91-168.13-18.49Q-167.59-18.08-167.01-17.88L-167.01-17.88Q-167.78-17.88-168.00-17.75Q-168.23-17.62-168.23-17.11L-168.23-17.11Q-168.23-16.79-168.00-16.02Q-167.78-15.24-167.78-14.79L-167.78-14.79Q-167.78-14.47-167.81-13.67Q-167.84-12.86-167.55-12.25Q-167.26-11.64-166.56-11.19L-166.56-11.19L-167.84-11.19Q-167.20-10.10-167.20-9.58L-167.20-9.58Q-167.20-9.19-167.55-8.71Q-167.91-8.23-167.91-7.65L-167.91-7.65Q-167.91-6.75-167.59-6.49L-167.59-6.49Q-168.29-6.43-168.29-5.40L-168.29-5.40Q-168.29-4.37-167.65-4.37L-167.65-4.37L-167.46-4.43Q-167.46-4.30-167.68-4.14Q-167.91-3.98-167.97-3.85L-167.97-3.85L-167.84-3.60Q-167.52-3.47-166.98-3.34Q-166.43-3.21-165.98-3.21L-165.98-3.21Q-165.72-3.21-165.37-3.56Q-165.01-3.92-165.01-4.05L-165.01-4.05Q-165.01-4.43-165.62-5.14Q-166.23-5.85-166.56-5.98L-166.56-5.98L-166.04-5.85Q-165.40-5.85-165.40-6.81L-165.40-6.81Q-165.40-7.39-165.62-7.78Q-165.85-8.16-165.85-8.36L-165.85-8.36Q-165.85-9.13-165.56-10.06Q-165.27-11.00-165.21-11.19L-165.21-11.19Q-164.56-13.25-164.56-14.28L-164.56-14.28Q-165.78-14.28-167.01-14.73L-167.01-14.73Q-167.01-15.24-165.01-15.24L-165.01-15.24L-165.01-17.05Q-166.11-17.05-166.30-17.56L-166.30-17.56Q-165.72-17.56-165.56-17.69Q-165.40-17.82-165.40-18.20L-165.40-18.20Q-165.40-18.65-165.46-18.85Q-165.53-19.04-165.85-19.11L-165.85-19.11L-165.40-19.43ZM-162.12-17.50Q-161.47-17.50-161.47-18.20L-161.47-18.20Q-161.47-18.98-161.86-19.11L-161.86-19.11Q-162.37-18.85-162.63-17.56L-162.63-17.56Q-162.44-17.50-162.12-17.50L-162.12-17.50ZM-167.01-6.43L-167.26-6.36Q-167.46-6.36-167.59-6.49L-167.59-6.49L-167.46-6.49Q-167.20-6.49-167.01-6.43L-167.01-6.43ZM-166.56-5.98L-166.56-5.98ZM-165.85-2.44Q-166.75-2.89-168.29-2.89L-168.29-2.89Q-168.29-1.54-167.46-1.54L-167.46-1.54Q-166.49-1.54-165.85-2.44L-165.85-2.44ZM-160.51-1.15Q-161.67-1.15-162.95-1.47L-162.95-1.47Q-164.37-1.73-165.27-1.73L-165.27-1.73Q-165.27-1.21-165.11-0.99Q-164.95-0.76-164.50-0.57Q-164.05-0.38-163.79-0.06L-163.79-0.06Q-162.37-0.06-161.18-0.25Q-159.99-0.44-159.48-1.21L-159.48-1.21Q-159.86-1.15-160.51-1.15L-160.51-1.15ZM-168.23 0.52L-168.17 0.78Q-168.10 1.30-167.39 1.55Q-166.69 1.81-166.11 1.81L-166.11 1.81Q-166.11 1.23-166.36 0.72Q-166.62 0.20-166.62-0.31L-166.62-0.31Q-166.62-0.76-166.20-0.96Q-165.78-1.15-165.78-1.47L-165.78-1.47L-165.85-1.60Q-165.98-1.54-166.65-1.25Q-167.33-0.96-167.78-0.51Q-168.23-0.06-168.23 0.52L-168.23 0.52ZM-157.87-1.28Q-158.25-1.28-158.51-1.09Q-158.77-0.89-159.09-0.44L-159.09-0.44L-157.10-0.44Q-157.10-0.96-157.29-1.12Q-157.48-1.28-157.87-1.28L-157.87-1.28ZM-153.88-1.28Q-156.00-1.28-156.71-0.06L-156.71-0.06Q-156.32 0.40-155.42 0.40L-155.42 0.40Q-154.46 0.40-154.17 0.04Q-153.88-0.31-153.88-1.28L-153.88-1.28ZM-152.72-0.76L-152.72 0.46Q-151.82 0.46-151.05 0.20Q-150.27-0.06-150.27-0.76L-150.27-0.76L-152.72-0.76ZM-165.66 5.54Q-165.66 4.45-166.04 3.68L-166.04 3.68Q-166.36 3.16-166.36 2.39L-166.36 2.39L-167.91 2.39Q-167.91 4.19-167.55 4.87Q-167.20 5.54-165.66 5.54L-165.66 5.54ZM-165.01 12.24L-166.30 11.72L-164.88 11.72L-164.82 11.34Q-164.82 11.01-165.08 9.47L-165.08 9.47Q-165.40 7.35-165.40 6.77L-165.40 6.77Q-166.81 5.80-167.91 5.80L-167.91 5.80L-167.97 8.83Q-167.97 10.89-167.55 12.24Q-167.14 13.59-165.85 14.04L-165.85 14.04L-167.46 14.04L-167.46 17.84L-167.01 18.22Q-167.39 18.42-167.46 18.87Q-167.52 19.32-167.52 20.02L-167.52 20.02Q-165.85 20.02-165.33 19.03Q-164.82 18.03-164.82 16.23L-164.82 16.23L-164.82 16.03L-164.82 14.43Q-164.82 12.49-165.01 12.24L-165.01 12.24Z"/></g><g xml:space="preserve" style="stroke: rgb(64,10,114); stroke-width: 0; stroke-dasharray:none; stroke-linecap: butt; stroke-dashoffset: 0; stroke-linejoin: miter; stroke-miterlimit: 4; fill: rgb(168,9,196); fill-rule: nonzero; opacity: 1; white-space: pre;"><path style="fill: rgb(196,107,9);" d="M-117.00 14.55Q-117.00 13.78-117.87 12.46Q-118.74 11.14-120.28 9.15L-120.28 9.15Q-121.31 7.80-121.38 7.73L-121.38 7.73L-123.76 4.19Q-125.11 3.93-125.98 3.84Q-126.85 3.74-128.20 3.74L-128.20 3.74Q-130.26 3.74-131.00 4.32Q-131.74 4.90-131.74 6.90L-131.74 6.90Q-131.74 8.57-131.48 11.79L-131.48 11.79Q-131.22 15.13-131.22 16.93L-131.22 16.93Q-131.22 18.22-131.45 19.06Q-131.68 19.90-132.45 20.47L-132.45 20.47Q-133.28 20.60-134.51 20.73Q-135.73 20.86-136.50 20.86L-136.50 20.86Q-137.27 20.86-137.50 20.57Q-137.72 20.28-137.72 19.51L-137.72 19.51Q-137.72 16.87-137.27 13.40L-137.27 13.40Q-137.21 12.82-137.02 10.85Q-136.82 8.89-136.82 7.15L-136.82 7.15Q-136.82 6.12-136.92 5.45Q-137.02 4.77-137.27 3.81L-137.27 3.81L-137.27-9.71Q-137.27-10.16-137.66-11.03Q-138.05-11.90-138.05-12.09L-138.05-12.09Q-138.05-12.41-137.85-13.09Q-137.66-13.76-137.66-14.15L-137.66-14.15Q-137.66-14.99-138.50-17.62L-138.50-17.62Q-138.88-19.17-138.88-19.23L-138.88-19.23Q-138.88-21.16-138.08-21.81Q-137.27-22.45-134.96-22.45L-134.96-22.45Q-134.12-22.45-132.70-22.19L-132.70-22.19Q-132.38-22.13-131.77-22.07Q-131.16-22.00-130.71-22.00L-130.71-22.00L-128.84-22.13Q-125.75-22.45-124.47-22.45L-124.47-22.45Q-120.54-22.45-118.00-22.16Q-115.46-21.87-113.78-20.46L-113.78-20.46Q-113.01-19.75-112.17-18.88Q-111.34-18.01-111.02-17.69L-111.02-17.69L-111.02-16.85L-110.63-16.85Q-110.57-15.82-110.24-14.73L-110.24-14.73Q-109.79-12.48-109.79-11.25L-109.79-11.25Q-109.79-5.40-112.17-2.18L-112.17-2.18Q-112.69-1.54-113.75-0.44Q-114.81 0.65-114.94 0.65L-114.94 0.65L-115.39 0.59Q-115.97 0.59-116.20 1.01Q-116.42 1.42-116.62 1.42L-116.62 1.42Q-116.87 1.42-117.19 1.23Q-117.52 1.04-117.52 0.91L-117.52 0.91L-117.39 0.65L-115.46-1.34Q-115.59-1.41-115.81-1.44Q-116.04-1.47-116.23-1.47L-116.23-1.47Q-116.81-1.47-117.10-1.21Q-117.39-0.96-117.71-0.31L-117.71-0.31Q-118.10 0.52-118.61 0.65L-118.61 0.65Q-118.80 0.65-120.99 1.42L-120.99 1.42Q-120.80 1.88-119.99 2.04Q-119.19 2.20-119.00 2.58L-119.00 2.58L-119.77 3.42L-118.03 3.42Q-118.03 3.29-118.13 2.97Q-118.22 2.65-118.22 2.39L-118.22 2.39Q-118.22 1.94-117.77 1.75L-117.77 1.75Q-117.52 2.58-116.91 3.45Q-116.29 4.32-116.16 4.45L-116.16 4.45Q-115.33 5.42-114.94 6.19L-114.94 6.19Q-113.91 9.21-112.14 12.37Q-110.37 15.52-107.35 20.02L-107.35 20.02Q-107.35 20.73-108.76 20.99Q-110.18 21.25-111.47 21.25L-111.47 21.25Q-112.50 21.25-112.85 20.86Q-113.20 20.47-113.43 19.70Q-113.66 18.93-114.23 18.93L-114.23 18.93L-117.00 14.55ZM-134.96-20.07Q-134.83-19.94-134.28-19.56Q-133.73-19.17-133.22-18.98Q-132.70-18.78-132.25-18.78L-132.25-18.78L-131.74-18.85L-132.90-20.07L-132.45-20.46Q-134.12-20.84-135.09-20.84L-135.09-20.84Q-135.47-20.84-135.83-20.78Q-136.18-20.71-136.50-20.46L-136.50-20.46Q-135.79-19.56-135.47-19.56L-135.47-19.56Q-134.96-19.56-134.96-20.07L-134.96-20.07ZM-126.53-20.46Q-126.33-20.33-125.75-19.39Q-125.18-18.46-124.72-18.46L-124.72-18.46Q-124.40-18.46-123.79-18.69Q-123.18-18.91-122.79-18.91L-122.79-18.91Q-122.79-20.78-123.37-20.78L-123.37-20.78L-126.53-20.46ZM-131.29-19.62Q-130.97-18.91-130.19-18.69Q-129.42-18.46-128.33-18.46L-128.33-18.46L-127.68-18.46Q-126.53-18.46-126.53-18.85L-126.53-18.85L-127.30-20.46L-130.52-20.46L-131.29-19.62ZM-122.47-20.46Q-122.47-19.11-121.80-18.40Q-121.12-17.69-119.77-17.69L-119.77-17.69Q-119.58-18.01-119.45-18.62Q-119.32-19.23-119.00-19.62L-119.00-19.62L-118.61-19.23Q-118.35-19.36-118.26-19.56Q-118.16-19.75-118.16-19.81L-118.16-19.81Q-118.16-19.94-118.29-20.20Q-118.42-20.46-118.61-20.46L-118.61-20.46L-122.47-20.46ZM-111.47-12.86L-111.40-13.12Q-111.40-13.89-112.05-15.44Q-112.69-16.98-113.62-18.24Q-114.56-19.49-115.46-19.62L-115.46-19.62Q-117.07-19.94-117.39-20.07L-117.39-20.07Q-117.97-19.49-117.97-17.30L-117.97-17.30L-117.97-16.79Q-117.45-16.79-116.71-16.98Q-115.97-17.17-115.52-17.17L-115.52-17.17L-115.46-16.92Q-115.46-16.85-115.91-16.37Q-116.36-15.89-116.62-15.69L-116.62-15.69L-116.23-15.24L-112.69-14.47L-112.63-14.28Q-112.63-14.02-112.85-13.80Q-113.08-13.57-113.40-13.57L-113.40-13.57L-113.40-13.31L-111.47-12.86ZM-132.13-2.95Q-131.55-2.05-129.17-2.05L-129.17-2.05Q-127.17-2.05-126.24-2.11Q-125.30-2.18-124.21-2.57L-124.21-2.57Q-123.57-2.69-122.09-2.82L-122.09-2.82Q-119.90-3.02-118.74-3.34Q-117.58-3.66-116.87-4.62Q-116.16-5.59-116.16-7.52L-116.16-7.52Q-116.16-9.39-116.55-11.00Q-116.94-12.61-117.77-14.47L-117.77-14.47Q-120.03-15.89-122.57-16.21Q-125.11-16.53-129.23-16.53L-129.23-16.53Q-130.52-16.53-131.26-16.31Q-132.00-16.08-132.45-15.24L-132.45-15.24Q-132.19-13.18-132.13-11.86Q-132.06-10.55-132.06-7.26L-132.06-7.26L-132.13-2.95ZM-115.78-14.86Q-116.10-14.86-116.10-14.47L-116.10-14.47Q-116.10-14.09-115.78-14.09L-115.78-14.09Q-115.65-14.09-115.59-14.21Q-115.52-14.34-115.52-14.47L-115.52-14.47Q-115.52-14.60-115.59-14.73Q-115.65-14.86-115.78-14.86L-115.78-14.86ZM-134.51-14.47L-134.64-14.47Q-135.15-14.47-135.41-14.09Q-135.67-13.70-135.67-13.18L-135.67-13.18Q-135.67-12.22-135.12-10.67Q-134.57-9.13-134.57-9.00L-134.57-9.00Q-133.86-9.84-133.86-10.93L-133.86-10.93Q-133.86-11.32-134.12-12.67Q-134.38-14.02-134.51-14.47L-134.51-14.47ZM-114.43-8.61Q-114.43-7.52-114.14-6.85Q-113.85-6.17-112.88-6.17L-112.88-6.17Q-111.92-6.17-111.66-7.91Q-111.40-9.64-111.40-11.25L-111.40-11.25L-112.43-11.25Q-112.43-11.38-112.56-11.48Q-112.69-11.58-112.69-11.70L-112.69-11.70L-111.85-12.09Q-112.82-12.67-115.26-12.67L-115.26-12.67Q-115.26-11.77-114.36-10.38Q-113.46-9.00-112.69-8.49L-112.69-8.49Q-112.69-8.36-112.79-8.23Q-112.88-8.10-113.01-8.10L-113.01-8.10Q-113.27-8.10-113.69-8.36Q-114.11-8.61-114.43-8.61L-114.43-8.61ZM-113.40-4.69Q-114.75-4.69-114.75-3.60L-114.75-3.60Q-114.04-3.60-113.72-3.82Q-113.40-4.05-113.40-4.69L-113.40-4.69ZM-115.46-2.95Q-115.65-2.89-115.88-2.76Q-116.10-2.63-116.23-2.57L-116.23-2.57L-114.94-2.57Q-115.01-2.69-115.17-2.82Q-115.33-2.95-115.46-2.95L-115.46-2.95ZM-135.34-1.15L-135.21 0.65L-134.89 0.07L-135.34-1.15ZM-120.61-0.31Q-122.21-0.31-122.21 1.04L-122.21 1.04Q-122.09 0.97-121.54 0.81Q-120.99 0.65-120.44 0.36Q-119.90 0.07-119.77-0.25L-119.77-0.25L-120.61-0.31ZM-128.84-0.06Q-128.84 0.14-127.88 0.27Q-126.91 0.40-125.95 0.46L-125.95 0.46Q-124.34 0.59-124.21 0.65L-124.21 0.65Q-123.69 0.40-123.69-0.25L-123.69-0.25L-128.84-0.06ZM-131.74 0.20Q-131.48 0.65-131.10 0.65L-131.10 0.65Q-130.97 0.65-130.74 0.56Q-130.52 0.46-130.52 0.20L-130.52 0.20L-131.74 0.20ZM-122.67 1.68Q-122.67 2.45-122.38 2.78Q-122.09 3.10-121.25 3.10L-121.25 3.10Q-121.25 2.58-121.70 2.13Q-122.15 1.68-122.67 1.68L-122.67 1.68ZM-135.67 3.81Q-135.67 4.13-135.50 4.67Q-135.34 5.22-135.21 5.42L-135.21 5.42Q-134.06 4.26-134.06 3.61L-134.06 3.61Q-134.06 2.91-134.96 2.91L-134.96 2.91Q-135.67 2.91-135.67 3.81L-135.67 3.81ZM-121.38 4.19L-121.38 4.51L-120.61 4.51L-120.61 4.19L-121.38 4.19ZM-120.16 5.80Q-118.35 6.25-116.87 6.25L-116.87 6.25Q-116.87 5.42-117.39 5.19Q-117.90 4.96-119.06 4.96L-119.06 4.96Q-120.22 4.96-120.22 5.54L-120.22 5.54L-120.16 5.80ZM-133.28 5.03Q-134.57 5.48-134.57 6.25L-134.57 6.25Q-133.73 6.25-133.28 5.03L-133.28 5.03ZM-135.21 8.50Q-135.21 8.63-135.12 8.79Q-135.02 8.95-134.96 8.95L-134.96 8.95Q-134.25 8.57-133.93 8.21Q-133.61 7.86-133.61 7.35L-133.61 7.35L-133.67 6.96Q-135.21 7.67-135.21 8.50L-135.21 8.50ZM-119.00 7.47Q-117.65 7.47-117.39 6.96L-117.39 6.96L-119.00 6.96L-119.00 7.47ZM-115.33 11.53Q-115.33 12.82-115.01 13.78Q-114.68 14.75-113.78 16.16L-113.78 16.16Q-113.33 16.93-112.72 17.77Q-112.11 18.61-111.85 18.93L-111.85 18.93L-110.63 18.93Q-111.21 17.13-112.56 15.07L-112.56 15.07Q-113.33 13.91-113.78 12.94L-113.78 12.94Q-113.91 12.69-114.75 10.82L-114.75 10.82Q-115.97 7.47-116.62 7.35L-116.62 7.35Q-116.74 7.41-117.26 7.64Q-117.77 7.86-117.77 8.18L-117.77 8.18Q-117.45 8.18-117.03 8.34Q-116.62 8.50-116.62 8.70L-116.62 8.70Q-116.62 8.95-116.84 9.21Q-117.07 9.47-117.07 9.79L-117.07 9.79Q-117.07 10.56-116.23 10.56L-116.23 10.56L-115.78 10.50L-116.62 10.95Q-116.62 11.79-116.29 11.79L-116.29 11.79Q-116.10 11.79-115.81 11.66Q-115.52 11.53-115.33 11.53L-115.33 11.53ZM-133.28 8.50Q-133.93 8.50-134.47 9.08Q-135.02 9.66-135.02 10.37L-135.02 10.37Q-133.93 10.37-133.54 10.02Q-133.16 9.66-132.90 8.50L-132.90 8.50L-133.28 8.50ZM-134.06 10.89Q-134.83 10.89-135.05 11.08Q-135.28 11.27-135.28 11.98L-135.28 11.98L-135.21 12.49Q-133.99 11.85-133.28 10.95L-133.28 10.95L-134.06 10.89ZM-135.28 17.71Q-135.28 18.48-133.93 18.48L-133.93 18.48Q-133.41 18.48-133.16 16.65Q-132.90 14.81-132.90 13.52L-132.90 13.52Q-132.90 12.11-133.48 12.11L-133.48 12.11Q-134.19 12.11-134.73 12.75Q-135.28 13.40-135.28 14.10L-135.28 14.10Q-135.28 14.81-134.96 14.94L-134.96 14.94Q-135.41 15.13-135.67 16.48L-135.67 16.48Q-135.28 16.48-134.44 15.68Q-133.61 14.88-133.48 14.88L-133.48 14.88L-133.28 14.94Q-133.41 15.52-134.31 16.29L-134.31 16.29Q-135.28 17.00-135.28 17.71L-135.28 17.71Z"/></g><g xml:space="preserve" style="stroke: rgb(64,10,114); stroke-width: 0; stroke-dasharray:none; stroke-linecap: butt; stroke-dashoffset: 0; stroke-linejoin: miter; stroke-miterlimit: 4; fill: rgb(168,9,196); fill-rule: nonzero; opacity: 1; white-space: pre;"><path d="M-94.03-6.62Q-94.03-6.23-94.19-5.69Q-94.35-5.14-94.35-4.69L-94.35-4.69Q-94.03-1.47-94.03-0.25L-94.03-0.25L-94.03 21.12Q-94.03 21.31-94.12 21.57Q-94.22 21.83-94.35 21.95L-94.35 21.95Q-95.51 21.95-96.34 20.73L-96.34 20.73L-96.73 21.12L-99.95 21.12L-100.33 20.73L-100.33 15.97Q-100.40 15.65-100.53 15.17Q-100.65 14.68-100.72 14.36L-100.72 14.36Q-100.72 13.65-100.53 12.11L-100.53 12.11L-100.33 9.60Q-100.33 5.67-100.59-3.47L-100.59-3.47L-100.72-9.00L-100.65-10.42L-100.85-12.54Q-101.49-18.53-101.49-21.36L-101.49-21.36Q-101.49-21.74-99.50-21.94Q-97.50-22.13-96.54-22.13L-96.54-22.13Q-94.35-22.13-94.35-20.97L-94.35-20.97Q-94.35-20.52-94.73-20.17Q-95.12-19.81-95.18-19.75L-95.18-19.75Q-95.18-17.95-94.93-15.82Q-94.67-13.70-94.61-13.18L-94.61-13.18Q-94.03-9.26-94.03-6.62L-94.03-6.62ZM-98.34-19.81Q-99.50-19.81-99.50-19.36L-99.50-19.36Q-99.50-19.04-99.37-18.56Q-99.24-18.08-99.11-17.75L-99.11-17.75L-98.40-18.20L-98.40-17.95L-98.40-17.75Q-98.40-17.62-99.11-16.21L-99.11-16.21L-98.72-16.14Q-96.66-16.14-96.66-17.88L-96.66-17.88Q-96.66-18.85-97.05-19.33Q-97.44-19.81-98.34-19.81L-98.34-19.81ZM-98.72-13.76Q-98.08-13.76-97.57-14.50Q-97.05-15.24-97.05-15.82L-97.05-15.82Q-97.63-15.82-98.40-15.37Q-99.17-14.92-99.17-14.41L-99.17-14.41Q-99.17-14.21-99.01-13.99Q-98.85-13.76-98.72-13.76L-98.72-13.76ZM-96.73-14.60Q-96.86-14.41-97.66-13.86Q-98.47-13.31-98.47-12.99L-98.47-12.99L-96.73-12.99L-96.73-14.60ZM-96.34-11.83Q-96.34-12.22-97.31-12.22L-97.31-12.22Q-98.60-12.22-98.85-11.96Q-99.11-11.70-99.11-11.00L-99.11-11.00L-99.11-10.61Q-99.11-10.10-98.92-9.35Q-98.72-8.61-98.53-8.61L-98.53-8.61Q-97.69-8.61-97.02-9.74Q-96.34-10.87-96.34-11.83L-96.34-11.83ZM-95.83-8.16L-95.83-8.36Q-95.83-9.32-96.34-9.39L-96.34-9.39Q-96.41-9.32-97.28-8.58Q-98.14-7.84-98.40-7.07L-98.40-7.07L-97.50-7.07Q-96.66-7.07-96.25-7.26Q-95.83-7.46-95.83-8.16L-95.83-8.16ZM-99.11-2.24Q-98.02-2.57-96.95-3.69Q-95.89-4.82-95.89-5.91L-95.89-5.91Q-95.89-6.30-96.73-6.30L-96.73-6.30Q-97.31-6.30-97.98-6.07Q-98.66-5.85-98.72-5.46L-98.72-5.46L-99.11-2.24ZM-95.76-0.96Q-95.76-2.18-95.86-2.82Q-95.96-3.47-96.34-3.47L-96.34-3.47L-98.40-1.41Q-98.40-1.21-97.47-1.09Q-96.54-0.96-95.76-0.96L-95.76-0.96ZM-98.40-0.25Q-98.47-0.06-98.60 0.36Q-98.72 0.78-98.72 1.10L-98.72 1.10Q-98.72 1.55-98.53 1.84Q-98.34 2.13-98.14 2.13L-98.14 2.13Q-97.50 2.13-96.79 1.30Q-96.09 0.46-96.09-0.25L-96.09-0.25L-98.40-0.25ZM-95.89 1.36Q-96.73 1.68-97.40 2.39Q-98.08 3.10-98.40 3.61L-98.40 3.61L-97.95 4.06L-95.89 3.61L-95.89 1.36ZM-95.89 4.45Q-97.44 4.45-97.95 4.93Q-98.47 5.42-98.47 6.83L-98.47 6.83L-97.95 6.83L-95.89 4.84L-95.89 4.45ZM-95.57 6.44Q-95.63 6.38-95.80 6.19Q-95.96 5.99-96.15 5.99L-96.15 5.99Q-96.79 5.99-97.44 6.96Q-98.08 7.92-98.08 8.57L-98.08 8.57Q-96.60 8.57-96.09 8.21Q-95.57 7.86-95.57 6.44L-95.57 6.44ZM-95.51 12.75L-95.51 12.37Q-95.51 11.14-96.15 11.14L-96.15 11.14Q-96.34 11.21-96.83 11.53Q-97.31 11.85-97.50 12.04L-97.50 12.04Q-97.31 11.72-96.54 10.82Q-95.76 9.92-95.57 9.28L-95.57 9.28L-98.66 9.28Q-98.66 10.24-98.92 12.04L-98.92 12.04Q-99.17 13.97-99.17 15.00L-99.17 15.00L-99.11 17.58Q-98.85 18.35-98.50 18.58Q-98.14 18.80-97.31 18.80L-97.31 18.80L-95.89 18.80Q-95.51 17.58-95.51 16.29L-95.51 16.29Q-95.51 15.91-95.70 15.45Q-95.89 15.00-95.89 14.81L-95.89 14.81Q-95.89 14.62-95.70 14.14Q-95.51 13.65-95.51 12.75L-95.51 12.75ZM-97.50 12.04L-97.50 12.04ZM-97.95 14.04Q-97.63 13.78-97.40 13.68Q-97.18 13.59-96.73 13.59L-96.73 13.59L-96.34 13.65Q-96.60 13.65-97.12 13.85Q-97.63 14.04-97.95 14.04L-97.95 14.04Z"/><path d="M-79.55 20.80Q-80.45 20.80-81.48 20.47Q-82.51 20.15-82.76 19.44L-82.76 19.44Q-82.76 17.51-82.70 16.03Q-82.63 14.55-82.57 13.59L-82.57 13.59Q-82.38 10.56-82.38 7.73L-82.38 7.73L-82.38 5.09Q-82.38 2.00-82.54-0.31Q-82.70-2.63-83.21-4.82L-83.21-4.82L-83.21-21.87L-75.23-21.87Q-74.40-21.55-73.69-21.49Q-72.98-21.42-71.63-21.42L-71.63-21.42Q-70.86-21.42-70.47-21.87L-70.47-21.87Q-67.70-21.87-64.23-22.13L-64.23-22.13L-62.10-22.26Q-61.27-22.26-57.02-21.87L-57.02-21.87Q-56.89-21.74-56.73-21.49Q-56.57-21.23-56.51-21.04L-56.51-21.04Q-56.51-19.94-56.83-19.11L-56.83-19.11Q-57.08-18.20-57.08-17.43L-57.08-17.43L-57.02-16.72L-58.57-16.34Q-61.27-16.53-64.04-16.53L-64.04-16.53Q-71.18-16.53-76.78-15.11L-76.78-15.11Q-77.10-14.41-77.20-13.89Q-77.29-13.38-77.29-12.61L-77.29-12.61Q-77.29-11.90-77.04-10.61L-77.04-10.61Q-76.78-9.19-76.78-8.55L-76.78-8.55L-77.23-4.82L-76.46-4.05L-74.40-3.92Q-72.92-3.92-70.99-4.24L-70.99-4.24Q-70.28-4.43-69.70-4.43L-69.70-4.43Q-69.25-3.98-69.12-3.98L-69.12-3.98L-69.18-3.98L-69.06-3.92Q-68.54-3.92-68.54-4.56L-68.54-4.56L-61.33-4.56Q-60.82-3.85-60.56-3.21L-60.56-3.21L-59.79-3.60Q-60.05-3.34-60.11-2.92Q-60.17-2.50-60.17-1.92L-60.17-1.92Q-60.17 0.46-60.11 0.78L-60.11 0.78L-60.95 1.49Q-66.16 1.49-74.27 1.94L-74.27 1.94L-76.07 2.00L-76.71 1.94Q-77.23 1.94-77.23 2.33L-77.23 2.33L-77.23 14.30L-76.78 15.00Q-76.71 15.13-74.36 15.29Q-72.02 15.45-70.28 15.45L-70.28 15.45Q-69.51 15.45-67.32 14.94L-67.32 14.94Q-64.87 14.30-63.78 14.30L-63.78 14.30Q-62.94 14.30-61.78 14.46Q-60.62 14.62-60.56 14.68L-60.56 14.68L-60.11 15.00Q-60.05 14.62-59.40 14.62L-59.40 14.62L-58.57 14.68L-59.27 15.00L-58.37 14.94L-57.99 14.94Q-57.60 14.94-57.37 15.04Q-57.15 15.13-57.02 15.45L-57.02 15.45Q-56.83 15.39-56.60 15.23Q-56.38 15.07-56.18 15.00L-56.18 15.00Q-55.60 15.39-55.44 16.00Q-55.28 16.61-55.28 17.64L-55.28 17.64Q-55.28 20.80-56.18 21.76L-56.18 21.76L-57.92 21.83Q-59.59 21.83-60.56 21.63Q-61.53 21.44-62.94 20.80L-62.94 20.80L-79.55 20.80ZM-63.78-20.33Q-63.84-20.13-63.84-19.88L-63.84-19.88Q-63.84-19.36-63.59-19.20Q-63.33-19.04-62.81-19.04L-62.81-19.04Q-62.10-19.04-61.49-19.36Q-60.88-19.68-60.88-20.33L-60.88-20.33L-63.78-20.33ZM-80.45-17.11L-80.00-17.11Q-79.48-17.11-77.20-18.14Q-74.91-19.17-74.85-19.49L-74.85-19.49Q-75.88-19.94-78.07-19.94L-78.07-19.94Q-81.15-19.94-81.15-19.88L-81.15-19.88L-81.61-17.95Q-80.96-17.95-79.55-18.72L-79.55-18.72L-80.45-17.11ZM-70.86-19.88L-71.31-19.49L-70.86-19.49L-70.86-19.88ZM-73.24-18.72Q-73.62-18.59-73.82-18.20Q-74.01-17.82-74.08-17.69L-74.08-17.69Q-74.08-17.56-73.88-17.56L-73.88-17.56Q-73.17-17.56-73.17-18.27L-73.17-18.27L-73.24-18.72ZM-79.55-16.34Q-80.25-16.34-80.77-16.02Q-81.28-15.69-81.28-15.05L-81.28-15.05Q-80.70-15.05-80.16-15.44Q-79.61-15.82-79.29-16.34L-79.29-16.34L-79.55-16.34ZM-79.55-13.12Q-79.80-12.73-80.25-12.54Q-80.70-12.35-80.96-12.12Q-81.22-11.90-81.22-11.38L-81.22-11.38L-81.15-10.80Q-80.06-11.70-79.64-12.35Q-79.22-12.99-79.22-14.15L-79.22-14.15L-79.29-15.11Q-79.67-14.73-80.41-14.21Q-81.15-13.70-81.15-13.57L-81.15-13.57Q-81.15-13.06-80.12-13.06L-80.12-13.06L-79.55-13.12ZM-78.64-11.25Q-79.74-11.25-80.83-9.19L-80.83-9.19Q-79.67-9.19-79.26-9.32Q-78.84-9.45-78.74-9.81Q-78.64-10.16-78.64-11.25L-78.64-11.25ZM-80.00-8.36Q-80.32-8.36-80.74-8.23Q-81.15-8.10-81.15-8.04L-81.15-8.04L-81.15-5.46Q-80.51-5.46-79.61-6.30Q-78.71-7.13-78.71-7.91L-78.71-7.91Q-78.71-8.04-79.16-8.20Q-79.61-8.36-80.00-8.36L-80.00-8.36ZM-78.39-5.65Q-79.16-5.65-79.84-5.17Q-80.51-4.69-80.51-3.98L-80.51-3.98Q-78.39-3.98-78.39-5.65L-78.39-5.65ZM-80.90-2.50Q-80.90-1.99-80.70-1.47Q-80.51-0.96-80.45-0.76L-80.45-0.76L-78.39-2.82L-78.39-3.34Q-79.42-3.34-80.16-3.21Q-80.90-3.08-80.90-2.50L-80.90-2.50ZM-63.33-2.44Q-63.97-2.24-64.52-1.70Q-65.07-1.15-65.32-0.51L-65.32-0.51L-62.10-0.51Q-62.81-1.34-63.33-2.44L-63.33-2.44ZM-70.21-2.11Q-71.37-2.18-72.37-1.44Q-73.37-0.70-73.37 0.33L-73.37 0.33Q-72.34 0.33-71.08-0.41Q-69.83-1.15-69.31-2.05L-69.31-2.05L-70.21-2.11ZM-70.09-0.06L-68.09-0.06Q-67.90-0.06-67.77-0.83Q-67.64-1.60-67.64-2.05L-67.64-2.05L-68.09-2.05L-70.09-0.06ZM-76.07-0.06Q-75.30-0.06-74.40-0.47Q-73.50-0.89-73.50-1.60L-73.50-1.60L-78.00-1.60Q-78.45-1.60-78.45-0.76L-78.45-0.76L-76.07-0.76L-76.07-0.06ZM-79.10 0.27Q-80.45 0.27-80.45 1.23L-80.45 1.23Q-79.93 1.23-79.51 1.01Q-79.10 0.78-79.10 0.27L-79.10 0.27ZM-79.29 2.00Q-79.35 2.07-79.93 2.52Q-80.51 2.97-80.51 3.61L-80.51 3.61Q-79.74 3.61-79.48 3.39Q-79.22 3.16-79.22 2.45L-79.22 2.45L-79.29 2.00ZM-80.45 5.16Q-80.38 5.29-80.25 5.54Q-80.12 5.80-80.00 5.93L-80.00 5.93Q-79.48 5.74-79.48 4.64L-79.48 4.64Q-79.74 4.64-80.09 4.74Q-80.45 4.84-80.45 5.16L-80.45 5.16ZM-79.22 6.64Q-79.87 6.64-80.03 7.12Q-80.19 7.60-80.19 8.50L-80.19 8.50Q-79.22 8.50-79.22 6.64L-79.22 6.64ZM-79.74 9.08Q-80.64 9.08-80.64 11.08L-80.64 11.08Q-80.64 11.40-80.61 11.59Q-80.58 11.79-80.58 11.85L-80.58 11.85L-80.00 11.85Q-79.87 11.85-79.58 11.18Q-79.29 10.50-79.29 10.18L-79.29 10.18Q-79.29 9.86-79.42 9.44Q-79.55 9.02-79.67 9.02L-79.67 9.02L-79.74 9.08ZM-80.45 15.52Q-79.93 15.52-79.71 15.13Q-79.48 14.75-79.48 14.30L-79.48 14.30L-80.45 14.30L-80.45 15.52ZM-80.45 17.96Q-80.45 18.22-80.25 18.42Q-80.06 18.61-80.00 18.67L-80.00 18.67Q-79.87 18.54-79.06 17.74Q-78.26 16.93-78.26 16.61L-78.26 16.61L-79.29 16.61L-79.29 15.91Q-79.67 16.10-80.03 16.93Q-80.38 17.77-80.45 17.84L-80.45 17.84L-80.45 17.96ZM-64.49 16.61Q-64.74 16.61-64.97 16.68Q-65.19 16.74-65.32 17.00L-65.32 17.00L-65.19 17.00Q-64.23 17.00-64.10 16.61L-64.10 16.61L-64.49 16.61ZM-65.32 18.22Q-64.29 18.22-63.87 18.13Q-63.46 18.03-62.94 17.45L-62.94 17.45L-62.94 18.22L-59.79 17.00L-63.78 17.00L-65.32 18.22ZM-59.02 19.83Q-57.92 19.83-57.60 19.06Q-57.28 18.29-57.28 17.00L-57.28 17.00L-59.02 17.00L-59.02 19.83ZM-70.47 17.39Q-71.31 17.39-72.08 17.71Q-72.85 18.03-73.24 18.67L-73.24 18.67L-72.08 18.74Q-71.05 18.74-70.50 18.51Q-69.96 18.29-69.70 17.45L-69.70 17.45L-70.47 17.39ZM-66.74 17.39Q-66.87 17.39-67.32 17.80Q-67.77 18.22-68.09 18.67L-68.09 18.67Q-67.83 18.67-67.32 18.29Q-66.80 17.90-66.55 17.45L-66.55 17.45L-66.74 17.39ZM-76.78 17.45Q-77.87 17.90-78.84 18.67L-78.84 18.67Q-78.07 18.67-77.71 18.45Q-77.36 18.22-76.78 17.45L-76.78 17.45ZM-59.79 17.84Q-60.11 17.84-60.91 18.16Q-61.72 18.48-61.72 18.67L-61.72 18.67L-61.72 19.32Q-61.01 19.32-60.33 18.90Q-59.66 18.48-59.27 17.84L-59.27 17.84L-59.79 17.84ZM-75.04 18.22Q-75.23 18.22-75.56 18.35Q-75.88 18.48-76.07 18.67L-76.07 18.67L-75.62 18.74Q-75.04 18.74-74.85 18.22L-74.85 18.22L-75.04 18.22Z"/></g><g xml:space="preserve" style="stroke: rgb(64,10,114); stroke-width: 0; stroke-dasharray:none; stroke-linecap: butt; stroke-dashoffset: 0; stroke-linejoin: miter; stroke-miterlimit: 4; fill: rgb(168,9,196); fill-rule: nonzero; opacity: 1; white-space: pre;"><path style="fill: rgb(208,2,27);" d="M-15.45 18.99Q-15.38 19.25-15.12 19.99Q-14.87 20.73-14.87 21.38L-14.87 21.38Q-15.90 21.38-17.51 21.05Q-19.11 20.73-19.76 20.54L-19.76 20.54Q-20.21 19.90-20.95 19.28Q-21.69 18.67-21.82 18.54L-21.82 18.54Q-23.10 17.51-23.81 16.65Q-24.52 15.78-24.52 14.55L-24.52 14.55Q-25.10 14.55-25.20 14.43Q-25.29 14.30-25.29 13.72L-25.29 13.72Q-26.32 13.72-26.97 12.85Q-27.61 11.98-28.32 10.31L-28.32 10.31Q-28.90 8.95-29.35 8.25L-29.35 8.25Q-30.05 8.25-30.47 7.64Q-30.89 7.02-31.21 6.25Q-31.54 5.48-31.73 5.09L-31.73 5.09Q-32.05 4.58-32.95 3.68L-32.95 3.68Q-34.17 2.33-34.50 1.49L-34.50 1.49Q-34.88 0.46-36.59-2.21Q-38.29-4.88-40.00-7.07Q-41.70-9.26-42.22-9.26L-42.22-9.26Q-42.54-9.26-42.86-6.81L-42.86-6.81Q-42.86-4.30-42.67-1.31Q-42.48 1.68-42.41 2.65L-42.41 2.65Q-41.96 8.18-41.96 12.17L-41.96 12.17Q-41.96 13.27-42.15 14.46Q-42.35 15.65-42.41 16.03L-42.41 16.03Q-42.86 18.29-42.86 19.83L-42.86 19.83Q-42.86 20.86-44.15 21.12Q-45.44 21.38-47.24 21.38L-47.24 21.38Q-47.50 21.38-48.04 21.25Q-48.59 21.12-49.17 20.99L-49.17 20.99Q-49.30 19.96-49.43 18.38Q-49.56 16.81-49.62 15.78L-49.62 15.78Q-49.62 11.98-49.23 4.26L-49.23 4.26Q-48.78-2.76-48.78-8.04L-48.78-8.04Q-49.10-9.32-49.39-10.77Q-49.68-12.22-49.68-13.44L-49.68-13.44Q-49.68-14.86-49.43-17.30L-49.43-17.30Q-49.10-19.36-49.10-21.23L-49.10-21.23L-49.17-22.71Q-48.14-22.97-47.40-23.03Q-46.66-23.10-45.82-23.10L-45.82-23.10Q-44.86-23.10-44.05-23.03Q-43.25-22.97-42.03-22.71L-42.03-22.71Q-39.77-19.23-39.45-18.78L-39.45-18.78Q-36.88-14.86-35.46-12.54Q-34.05-10.22-32.95-7.65L-32.95-7.65Q-32.95-7.33-30.54-3.88Q-28.12-0.44-25.74 2.55Q-23.36 5.54-22.72 5.54L-22.72 5.54Q-22.14 5.54-22.14-3.47L-22.14-3.47L-22.20-12.03Q-22.59-13.57-22.59-13.57L-22.59-13.57Q-22.59-14.34-22.49-15.37Q-22.40-16.40-22.40-16.85L-22.40-16.85Q-22.20-18.40-22.20-20.07L-22.20-20.07Q-22.20-21.36-21.30-21.71Q-20.40-22.07-18.86-22.07L-18.86-22.07Q-17.57-22.07-16.83-21.90Q-16.09-21.74-16.09-21.16L-16.09-21.16Q-16.09-20.91-16.22-20.39Q-16.35-19.88-16.35-19.49L-16.35-19.49Q-16.35-19.17-16.12-18.24Q-15.90-17.30-15.90-16.79L-15.90-16.79Q-15.90-13.89-15.45-10.03L-15.45-10.03Q-15.38-9.39-15.19-7.23Q-15.00-5.08-15.00-3.14L-15.00-3.14Q-15.00-0.57-15.45 3.03L-15.45 3.03Q-15.83 6.90-15.83 8.89L-15.83 8.89L-15.83 11.14Q-15.83 15.91-15.45 18.99L-15.45 18.99ZM-46.85-21.16Q-47.56-21.16-47.56-20.71L-47.56-20.71Q-47.56-20.59-47.24-19.94L-47.24-19.94L-45.95-20.71L-46.85-21.16ZM-44.41-20.39Q-45.31-20.39-46.43-19.23Q-47.56-18.08-47.56-17.17L-47.56-17.17Q-47.56-17.05-47.43-16.92Q-47.30-16.79-47.24-16.79L-47.24-16.79L-44.02-20.33L-44.41-20.39ZM-42.99-20.01Q-43.44-20.01-43.96-19.30Q-44.47-18.59-44.79-17.95L-44.79-17.95L-44.60-17.88Q-44.54-17.95-43.63-18.43Q-42.73-18.91-42.48-19.17L-42.48-19.17Q-42.48-19.36-42.67-19.68Q-42.86-20.01-42.99-20.01L-42.99-20.01ZM-20.66-15.76L-20.66-13.57L-20.21-13.57L-18.21-15.57L-18.60-15.95L-17.83-16.34Q-17.70-16.66-17.57-17.50Q-17.44-18.33-17.44-18.78L-17.44-18.78Q-17.44-18.98-17.57-19.20Q-17.70-19.43-17.83-19.49L-17.83-19.49L-20.21-19.49L-20.66-17.95Q-20.66-17.30-20.34-16.63Q-20.02-15.95-19.44-15.76L-19.44-15.76L-20.66-15.76ZM-47.24-13.18L-40.87-16.34Q-40.93-16.53-41.16-17.05Q-41.38-17.56-41.64-17.56L-41.64-17.56Q-42.54-17.56-44.60-15.95Q-46.66-14.34-47.56-13.18L-47.56-13.18L-47.24-13.18ZM-44.41-16.79Q-45.44-16.79-46.50-16.24Q-47.56-15.69-47.56-14.79L-47.56-14.79L-47.24-14.79L-44.02-16.79L-44.41-16.79ZM-37.71-10.42L-37.65-9.97Q-37.65-9.58-37.91-8.84Q-38.16-8.10-38.16-7.59L-38.16-7.59Q-35.65-7.59-35.65-8.16L-35.65-8.16Q-35.65-9.77-38.49-13.57L-38.49-13.57L-40.42-15.57Q-40.74-15.50-42.48-14.34L-42.48-14.34Q-42.22-13.89-41.86-13.22Q-41.51-12.54-41.19-12.32Q-40.87-12.09-40.22-12.09L-40.22-12.09Q-40.22-10.80-40.00-10.19Q-39.77-9.58-38.87-8.81L-38.87-8.81L-37.71-10.42ZM-20.66-12.03L-20.66-10.67Q-20.34-10.67-19.05-12.38Q-17.76-14.09-17.76-14.34L-17.76-14.34L-18.21-14.34L-20.66-12.03ZM-44.99-13.25Q-45.18-13.12-46.02-12.73Q-46.85-12.35-47.24-12.03L-47.24-12.03L-47.24-8.04L-46.85-7.65Q-46.21-8.10-45.31-9.00Q-44.41-9.90-44.41-10.61L-44.41-10.61Q-44.66-11.00-44.82-11.74Q-44.99-12.48-44.99-13.25L-44.99-13.25ZM-17.70-9.52Q-17.70-12.41-18.21-12.41L-18.21-12.41Q-19.44-10.93-19.44-10.16L-19.44-10.16Q-19.44-9.52-17.70-9.52L-17.70-9.52ZM-19.76-9.26Q-19.95-9.26-20.27-8.71Q-20.59-8.16-20.66-8.04L-20.66-8.04Q-20.66-7.71-20.50-7.10Q-20.34-6.49-20.21-6.49L-20.21-6.49L-19.76-6.49L-17.83-8.42Q-17.96-8.81-18.66-9.03Q-19.37-9.26-19.76-9.26L-19.76-9.26ZM-37.26-6.81Q-36.55-5.59-36.30-5.59L-36.30-5.59Q-35.72-5.59-35.40-6.17Q-35.07-6.75-35.07-7.39L-35.07-7.39Q-35.85-7.39-36.36-7.30Q-36.88-7.20-37.26-6.81L-37.26-6.81ZM-18.99 1.94Q-18.47 1.36-17.67-0.06Q-16.86-1.47-16.86-2.11L-16.86-2.11Q-17.31-2.11-17.57-1.89Q-17.83-1.66-18.15-1.15L-18.15-1.15Q-18.73-0.18-19.44-0.12L-19.44-0.12L-19.44-0.83Q-18.41-1.66-17.73-2.69Q-17.05-3.72-17.05-4.82L-17.05-4.82L-18.60-4.82Q-18.41-5.08-17.99-5.30Q-17.57-5.53-17.28-5.78Q-16.99-6.04-16.99-6.49L-16.99-6.49Q-16.99-6.68-17.25-6.97Q-17.51-7.26-17.63-7.26L-17.63-7.26Q-18.34-7.26-19.15-6.39Q-19.95-5.53-19.95-4.82L-19.95-4.82L-19.50-4.82L-19.44-4.50Q-19.50-4.37-20.21-3.66L-20.21-3.66Q-20.66-2.44-20.66 0.46L-20.66 0.46Q-20.66 1.23-20.53 1.46Q-20.40 1.68-20.14 1.84Q-19.89 2.00-19.76 2.33L-19.76 2.33Q-19.69 2.45-19.89 2.74Q-20.08 3.03-20.21 3.03L-20.21 3.03L-17.44 3.03L-17.44 1.42Q-17.70 1.42-18.18 1.59Q-18.66 1.75-18.99 1.94L-18.99 1.94ZM-44.79-6.49L-44.79-6.88Q-46.92-6.88-46.92-5.08L-46.92-5.08Q-46.53-5.20-45.66-5.75Q-44.79-6.30-44.79-6.49L-44.79-6.49ZM-34.56-3.21Q-34.05-3.21-33.66-3.40Q-33.27-3.60-33.27-4.05L-33.27-4.05Q-33.27-4.56-33.59-4.88Q-33.92-5.20-34.69-5.65L-34.69-5.65Q-34.88-5.59-35.30-5.33Q-35.72-5.08-35.72-4.69L-35.72-4.69Q-35.72-3.92-35.33-3.56Q-34.95-3.21-34.56-3.21L-34.56-3.21ZM-46.53-3.60Q-45.69-3.60-45.21-4.08Q-44.73-4.56-44.73-5.33L-44.73-5.33Q-45.37-5.33-45.95-4.79Q-46.53-4.24-46.53-3.60L-46.53-3.60ZM-44.54-3.08Q-45.37-3.08-46.11-2.82Q-46.85-2.57-46.85-1.86L-46.85-1.86Q-46.85-1.79-46.40-0.44L-46.40-0.44Q-45.50-1.09-45.02-1.66Q-44.54-2.24-44.54-3.08L-44.54-3.08ZM-33.34-0.83Q-32.44-1.47-32.44-3.02L-32.44-3.02Q-33.27-3.02-33.72-2.85Q-34.17-2.69-34.17-1.99L-34.17-1.99Q-34.17-1.28-33.34-0.83L-33.34-0.83ZM-31.15 2.78Q-30.63 2.78-30.38 2.07Q-30.12 1.36-30.12 0.78L-30.12 0.78Q-30.12 0.01-30.57-0.86Q-31.02-1.73-31.73-1.73L-31.73-1.73Q-31.86-1.73-32.28-0.99Q-32.69-0.25-32.95-0.12L-32.95-0.12Q-32.95 0.52-32.63 0.72Q-32.31 0.91-31.66 0.91L-31.66 0.91Q-31.21 0.91-30.89 0.85Q-30.57 0.78-30.51 0.78L-30.51 0.78Q-30.63 0.97-31.21 1.20Q-31.79 1.42-31.79 1.68L-31.79 1.68Q-31.79 1.94-31.57 2.36Q-31.34 2.78-31.15 2.78L-31.15 2.78ZM-45.76 0.46Q-44.34 0.46-44.34-0.44L-44.34-0.44Q-44.34-0.83-44.41-0.99Q-44.47-1.15-44.79-1.28L-44.79-1.28Q-45.76-0.31-45.76 0.46L-45.76 0.46ZM-44.79 1.10Q-45.05 1.17-45.73 1.33Q-46.40 1.49-46.63 1.97Q-46.85 2.45-46.85 3.48L-46.85 3.48L-44.79 1.49L-44.79 1.10ZM-26.97 7.86Q-26.39 7.86-25.87 7.60Q-25.36 7.35-25.36 6.90L-25.36 6.90Q-25.36 6.51-25.94 6.03Q-26.52 5.54-26.77 5.42L-26.77 5.42Q-26.84 5.42-26.90 5.45Q-26.97 5.48-26.97 5.48L-26.97 5.48L-28.96 1.49Q-28.96 1.49-29.03 1.46Q-29.09 1.42-29.15 1.42L-29.15 1.42Q-29.73 1.42-29.96 2.07Q-30.18 2.71-30.18 3.48L-30.18 3.48Q-30.18 4.32-29.86 4.64Q-29.54 4.96-28.77 4.96L-28.77 4.96Q-28.77 5.16-28.86 5.48Q-28.96 5.80-28.96 6.12L-28.96 6.12Q-28.96 6.70-28.38 6.70L-28.38 6.70Q-28.19 6.70-27.87 6.57Q-27.54 6.44-27.35 6.25L-27.35 6.25Q-27.74 7.41-27.74 7.47L-27.74 7.47Q-27.74 7.86-26.97 7.86L-26.97 7.86ZM-46.40 4.71Q-44.28 4.71-44.28 3.03L-44.28 3.03Q-44.28 2.91-44.31 2.68Q-44.34 2.45-44.41 2.33L-44.41 2.33Q-46.14 3.81-46.40 4.71L-46.40 4.71ZM-17.44 5.48L-18.99 5.48Q-18.60 5.22-18.18 4.67Q-17.76 4.13-17.76 3.93L-17.76 3.93L-20.21 3.93L-20.21 7.15Q-19.50 7.15-18.66 6.64Q-17.83 6.12-17.44 5.48L-17.44 5.48ZM-45.69 5.87Q-46.02 5.87-46.63 6.09Q-47.24 6.32-47.24 6.70L-47.24 6.70Q-47.17 6.90-47.05 7.12Q-46.92 7.35-46.85 7.47L-46.85 7.47L-45.24 5.87L-45.69 5.87ZM-44.02 7.47Q-44.02 7.22-44.15 6.86Q-44.28 6.51-44.41 6.25L-44.41 6.25Q-46.08 7.54-46.08 8.89L-46.08 8.89Q-44.02 8.89-44.02 7.47L-44.02 7.47ZM-21.37 14.23Q-19.05 14.23-18.21 12.11Q-17.38 9.98-17.38 7.47L-17.38 7.47Q-17.38 6.70-17.83 6.70L-17.83 6.70Q-18.79 6.70-19.28 7.18Q-19.76 7.67-20.21 8.63L-20.21 8.63Q-20.66 9.66-21.14 10.15Q-21.62 10.63-22.59 10.63L-22.59 10.63L-22.53 10.43Q-22.53 10.05-22.91 9.79L-22.91 9.79Q-23.10 9.86-23.88 10.24Q-24.65 10.63-24.97 11.01L-24.97 11.01L-23.43 12.62Q-23.23 12.49-21.72 11.40Q-20.21 10.31-19.11 10.31L-19.11 10.31Q-19.11 10.82-20.59 13.07L-20.59 13.07Q-21.24 13.97-21.37 14.23L-21.37 14.23ZM-25.42 10.31Q-25.10 10.31-24.46 10.02Q-23.81 9.73-23.43 9.47L-23.43 9.47Q-23.43 8.89-23.49 8.63Q-23.55 8.38-23.75 8.38L-23.75 8.38Q-23.88 8.38-24.07 8.44Q-24.26 8.50-24.52 8.50L-24.52 8.50L-24.52 7.41Q-25.10 7.41-25.84 7.89Q-26.58 8.38-26.58 8.89L-26.58 8.89Q-26.52 9.02-26.42 9.18Q-26.32 9.34-26.19 9.47L-26.19 9.47Q-26.00 9.47-25.78 9.31Q-25.55 9.15-25.42 9.02L-25.42 9.02L-25.42 10.31ZM-46.40 15.45Q-45.37 15.45-44.82 15.29Q-44.28 15.13-44.28 14.43L-44.28 14.43Q-44.28 14.30-44.31 14.10Q-44.34 13.91-44.41 13.78L-44.41 13.78Q-45.82 15.00-46.85 15.00L-46.85 15.00Q-46.40 14.62-46.40 13.97L-46.40 13.97L-46.47 12.75Q-46.47 12.49-45.89 11.21L-45.89 11.21Q-45.24 9.79-45.24 9.47L-45.24 9.47Q-46.72 9.66-47.17 10.27Q-47.62 10.89-47.62 12.37L-47.62 12.37L-47.69 13.65Q-47.69 14.49-47.43 14.97Q-47.17 15.45-46.40 15.45L-46.40 15.45ZM-45.76 12.75Q-44.86 12.75-44.31 11.88Q-43.76 11.01-43.76 10.18L-43.76 10.18Q-44.60 10.11-45.18 11.01Q-45.76 11.92-45.76 12.75L-45.76 12.75ZM-23.62 14.36Q-22.85 14.36-21.72 13.40Q-20.59 12.43-20.59 11.72L-20.59 11.72L-20.66 11.46Q-21.82 11.85-22.72 12.59Q-23.62 13.33-23.62 14.36L-23.62 14.36ZM-20.21 16.23Q-19.18 16.23-18.47 15.71Q-17.76 15.20-17.76 14.23L-17.76 14.23L-18.21 14.23L-20.21 16.23ZM-22.01 16.03Q-20.66 16.03-20.66 15.00L-20.66 15.00Q-21.30 15.07-21.66 15.26Q-22.01 15.45-22.01 16.03L-22.01 16.03ZM-44.79 16.61L-44.79 16.16Q-46.40 16.16-47.14 16.61Q-47.88 17.06-47.88 18.54L-47.88 18.54L-46.85 18.54L-44.79 16.61ZM-17.83 17.19L-17.83 16.61L-19.76 17.45L-19.76 18.22L-18.21 18.54L-18.15 18.54Q-17.83 18.54-17.83 17.19L-17.83 17.19Z"/></g><g xml:space="preserve" style="stroke: rgb(64,10,114); stroke-width: 0; stroke-dasharray:none; stroke-linecap: butt; stroke-dashoffset: 0; stroke-linejoin: miter; stroke-miterlimit: 4; fill: rgb(168,9,196); fill-rule: nonzero; opacity: 1; white-space: pre;"><path d="M25.74-14.60Q26.97-13.76 28.09-11.38Q29.22-9.00 29.93-6.20Q30.63-3.40 30.63-1.66L30.63-1.66Q30.63 1.94 29.77 5.03Q28.90 8.12 26.97 11.27L26.97 11.27Q26.77 11.53 26.58 12.04Q26.39 12.56 26.13 12.91Q25.87 13.27 25.42 13.27L25.42 13.27L25.74 13.65L24.97 14.10L25.42 14.36Q24.39 15.84 21.69 16.90Q18.99 17.96 16.73 18.42L16.73 18.42Q14.42 18.67 2.06 19.64L2.06 19.64L-3.54 20.02Q-4.25 20.09-5.02 20.47L-5.02 20.47Q-5.66 20.86-6.24 20.86L-6.24 20.86Q-6.76 20.86-6.98 20.73Q-7.21 20.60-7.21 20.02L-7.21 20.02L-7.27 13.40Q-7.27 10.69-7.01 5.42L-7.01 5.42Q-6.76-0.12-6.76-2.82L-6.76-2.82Q-6.76-3.66-7.01-5.20L-7.01-5.20Q-7.27-6.75-7.27-7.52L-7.27-7.52Q-7.27-8.81-7.08-10.29Q-6.89-11.77-6.82-12.22L-6.82-12.22Q-6.37-14.79-6.37-16.72L-6.37-16.72Q-6.37-17.62-6.56-18.46L-6.56-18.46Q-6.76-20.01-6.76-20.13L-6.76-20.13Q-6.76-21.87 9.14-21.87L9.14-21.87L12.68-21.87Q14.80-21.62 17.63-20.39Q20.47-19.17 22.78-17.53Q25.10-15.89 25.74-14.60L25.74-14.60ZM10.30-20.07L5.53-19.75Q5.73-19.36 6.63-19.14Q7.53-18.91 7.92-18.91L7.92-18.91Q8.37-18.91 10.68-20.07L10.68-20.07L10.30-20.07ZM13.06-19.36Q12.36-19.36 11.91-18.91L11.91-18.91L11.91-19.81Q11.71-19.81 11.10-19.52Q10.49-19.23 10.30-18.91L10.30-18.91Q10.55-18.59 11.23-18.40Q11.91-18.20 12.55-18.20L12.55-18.20Q12.81-18.27 13.26-18.46Q13.71-18.65 13.90-18.91L13.90-18.91Q13.77-19.23 13.58-19.30Q13.39-19.36 13.06-19.36L13.06-19.36ZM-0.26-19.36Q-0.58-19.36-2.00-19.39Q-3.41-19.43-4.15-18.78Q-4.89-18.14-4.89-16.79L-4.89-16.79Q-3.86-16.79-1.29-17.79Q1.29-18.78 2.00-19.36L2.00-19.36L-0.26-19.36ZM18.28-17.37Q18.28-17.95 16.99-18.24Q15.70-18.53 15.06-18.53L15.06-18.53Q14.74-18.40 14.16-18.14Q13.58-17.88 13.45-17.69L13.45-17.69Q14.61-16.98 16.35-16.98L16.35-16.98Q16.35-15.69 18.08-15.69L18.08-15.69Q18.92-15.69 18.99-16.14L18.99-16.14L18.99-14.92L21.04-14.92L20.21-14.15Q20.53-14.21 21.95-12.86Q23.36-11.51 23.36-11.19L23.36-11.19L24.20-11.19Q24.07-10.93 23.81-10.64Q23.55-10.35 23.43-10.22L23.43-10.22Q23.75-9.84 24.01-9.32Q24.26-8.81 24.33-8.61L24.33-8.61Q24.97-7.20 25.74-6.62L25.74-6.62Q24.91-6.62 24.91-5.91L24.91-5.91Q24.91-5.33 25.13-5.14Q25.36-4.95 25.97-4.85Q26.58-4.75 26.58-3.92L26.58-3.92Q26.58-3.85 26.13-3.63Q25.68-3.40 25.68-3.34L25.68-3.34Q25.68-3.27 25.74-3.27L25.74-3.27Q25.74-2.18 26.71-2.18L26.71-2.18Q28.25-2.18 28.25-2.89L28.25-2.89Q28.25-3.02 26.97-3.66L26.97-3.66L29.03-3.66L29.03-4.24L27.42-5.08Q27.54-5.08 27.67-5.30Q27.80-5.53 27.80-5.65L27.80-5.65Q27.80-5.91 27.45-6.01Q27.09-6.10 26.97-6.17L26.97-6.17Q27.48-6.49 27.64-6.75Q27.80-7.01 27.80-7.46L27.80-7.46Q27.80-8.23 26.97-8.23L26.97-8.23Q26.26-8.23 25.81-7.84L25.81-7.84Q26.13-8.10 26.58-9.00L26.58-9.00Q26.58-10.74 25.39-12.28Q24.20-13.83 22.98-15.02Q21.75-16.21 21.37-16.60L21.37-16.60L21.04-16.60L18.28-17.37ZM20.66-10.93Q20.40-11.00 19.92-11.06Q19.44-11.12 19.15-11.32Q18.86-11.51 18.86-11.96L18.86-11.96Q18.86-12.35 18.99-12.61L18.99-12.61Q18.08-13.12 16.64-14.05Q15.19-14.99 14.67-15.37L14.67-15.37Q11.65-16.40 9.81-16.88Q7.98-17.37 5.92-17.37L5.92-17.37Q4.44-17.37 1.93-16.98Q-0.58-16.60-0.77-16.14L-0.77-16.14L-1.22-15.37Q-1.22-11.83-1.29-9.19Q-1.35-6.56-1.42-4.75L-1.42-4.75Q-1.67 2.45-1.67 5.99L-1.67 5.99L-1.67 8.05Q-1.67 13.85-1.22 14.10L-1.22 14.10L-0.45 14.36Q0.19 14.43 1.35 14.49Q2.51 14.55 3.35 14.55L3.35 14.55Q9.52 14.55 13.90 13.59Q18.28 12.62 21.04 9.28L21.04 9.28L21.17 9.34Q21.82 9.34 22.53 7.22Q23.23 5.09 23.72 2.45Q24.20-0.18 24.20-1.28L24.20-1.28Q24.20-2.24 23.62-4.56Q23.04-6.88 22.20-8.78Q21.37-10.67 20.66-10.93L20.66-10.93ZM-5.15-13.38Q-5.15-13.12-4.99-12.61Q-4.83-12.09-4.83-11.70L-4.83-11.70Q-4.83-10.93-5.41-9.84L-5.41-9.84L-2.77-9.84Q-2.77-10.35-3.15-11.25L-3.15-11.25Q-3.60-12.15-3.60-12.80L-3.60-12.80Q-3.60-13.18-3.41-13.83Q-3.22-14.47-3.22-14.92L-3.22-14.92L-3.22-15.37Q-3.22-16.21-3.54-16.60L-3.54-16.60Q-5.15-15.95-5.15-13.38L-5.15-13.38ZM-3.28-5.40Q-3.28-5.91-3.80-6.30Q-4.31-6.68-4.83-6.81L-4.83-6.81L-2.70-6.81Q-2.77-7.20-2.93-8.10Q-3.09-9.00-3.28-9.00L-3.28-9.00L-5.34-9.00Q-5.34-7.07-5.02-4.69L-5.02-4.69Q-4.76-2.11-4.76-0.70L-4.76-0.70L-3.28-0.70L-3.28-5.40ZM25.81-7.84L25.74-7.78L25.81-7.84ZM29.15-2.31Q27.80-2.31 26.68-0.92Q25.55 0.46 25.55 1.81L25.55 1.81Q27.35 1.81 28.25 0.72Q29.15-0.38 29.15-2.31L29.15-2.31ZM19.95 15.45Q19.95 15.33 19.63 15.13Q19.31 14.94 18.99 14.81L18.99 14.81Q21.88 14.81 23.43 13.65L23.43 13.65Q23.36 13.46 22.49 13.07Q21.62 12.69 20.85 12.69L20.85 12.69Q20.47 12.69 19.28 13.72Q18.08 14.75 17.89 14.81L17.89 14.81Q16.35 15.45 14.35 15.65Q12.36 15.84 9.27 15.91L9.27 15.91L7.47 15.97Q6.44 16.10 4.54 16.23Q2.64 16.36 1.54 16.42L1.54 16.42Q-0.00 16.42-1.67 16.19Q-3.35 15.97-3.54 15.26L-3.54 15.26L-3.60 13.85Q-3.60 12.88-3.44 12.24Q-3.28 11.59-3.28 11.27L-3.28 11.27Q-3.28 10.89-3.48 10.37Q-3.67 9.86-3.99 9.66L-3.99 9.66Q-3.67 9.53-3.48 8.44Q-3.28 7.35-3.28 6.90L-3.28 6.90Q-3.28 5.87-3.48 4.90L-3.48 4.90Q-3.60 3.74-3.60 3.23L-3.60 3.23Q-3.60 2.58-3.41 2.13Q-3.22 1.68-3.22 1.36L-3.22 1.36Q-3.22 0.52-3.67 0.17Q-4.12-0.18-5.08-0.18L-5.08-0.18Q-5.08 2.45-5.15 4.00Q-5.21 5.54-5.60 6.90L-5.60 6.90L-5.15 7.28L-5.15 10.05Q-5.28 10.05-5.44 10.21Q-5.60 10.37-5.60 10.43L-5.60 10.43Q-5.53 10.82-5.37 11.30Q-5.21 11.79-5.15 12.04L-5.15 12.04Q-5.21 12.37-5.37 12.85Q-5.53 13.33-5.60 13.65L-5.60 13.65Q-5.53 13.85-5.41 14.23Q-5.28 14.62-5.15 14.81L-5.15 14.81Q-5.15 15.65-4.83 17.58L-4.83 17.58Q-2.96 17.58-0.61 17.64Q1.74 17.71 2.38 18.03L2.38 18.03Q2.45 17.84 2.57 17.58Q2.70 17.32 2.77 17.19L2.77 17.19Q3.02 17.19 3.54 17.39Q4.05 17.58 4.38 17.58L4.38 17.58Q5.79 17.58 7.37 17.32Q8.95 17.06 9.40 17.00L9.40 17.00Q12.29 16.42 14.35 16.42L14.35 16.42L16.73 16.42Q17.25 15.91 18.15 15.68Q19.05 15.45 19.95 15.45L19.95 15.45ZM28.19 4.58Q28.32 3.81 28.45 3.07Q28.57 2.33 28.57 2.00L28.57 2.00Q25.74 2.00 25.74 2.91L25.74 2.91Q25.81 3.03 25.97 3.26Q26.13 3.48 26.19 3.61L26.19 3.61Q26.13 3.81 25.84 4.16Q25.55 4.51 25.42 4.58L25.42 4.58L25.74 4.90Q25.10 4.90 24.91 5.48Q24.71 6.06 24.68 6.96Q24.65 7.86 24.58 8.05L24.58 8.05Q24.58 8.18 24.17 8.60Q23.75 9.02 23.75 9.08L23.75 9.08Q23.75 9.28 23.81 9.28L23.81 9.28L21.04 12.04Q21.43 12.49 22.40 12.49L22.40 12.49Q23.81 12.49 25.00 11.59Q26.19 10.69 26.19 9.28L26.19 9.28Q26.19 8.83 26.06 8.63Q25.94 8.44 25.42 8.44L25.42 8.44Q26.45 8.44 27.09 7.80Q27.74 7.15 27.74 6.12L27.74 6.12Q27.74 5.87 27.38 5.67Q27.03 5.48 26.71 5.42Q26.39 5.35 26.19 5.29L26.19 5.29Q26.45 5.22 26.93 4.87Q27.42 4.51 27.80 4.51L27.80 4.51Q28.06 4.51 28.19 4.58L28.19 4.58ZM23.75 10.31Q24.58 10.31 24.58 10.43L24.58 10.43Q24.39 10.63 23.81 10.63L23.81 10.63Q22.98 10.63 22.98 10.43L22.98 10.43Q22.98 10.31 23.75 10.31L23.75 10.31Z"/><path d="M35.33 11.08Q35.46 9.86 35.85 6.28Q36.23 2.71 36.68 0.40L36.68 0.40Q35.85-2.11 35.85-9.58L35.85-9.58L35.91-16.66Q35.46-16.98 35.40-17.85Q35.33-18.72 35.33-20.52L35.33-20.52Q35.33-21.36 35.46-21.49L35.46-21.49L36.30-22.26L41.45-22.26L41.90-21.87Q41.96-21.81 42.35-19.23L42.35-19.23L42.60-17.88Q43.06-14.99 43.06-10.16L43.06-10.16Q43.06-6.88 42.41-0.44L42.41-0.44Q41.77 5.99 41.77 9.28L41.77 9.28Q41.77 10.50 41.83 11.34Q41.90 12.17 41.90 12.30L41.90 12.30L42.60 13.14Q42.22 13.20 42.22 13.72L42.22 13.72Q42.22 14.04 42.31 14.30Q42.41 14.55 42.41 14.75L42.41 14.75Q43.25 14.81 44.60 14.81Q45.95 14.81 47.30 14.88L47.30 14.88L51.42 15.00Q52.07 15.52 53.74 15.52L53.74 15.52Q55.48 15.52 57.92 15.00L57.92 15.00Q59.98 14.62 61.20 14.62L61.20 14.62Q61.20 15.26 61.46 16.42L61.46 16.42Q61.53 16.68 61.59 17.16Q61.65 17.64 61.65 18.03L61.65 18.03Q61.65 18.61 61.01 19.22Q60.37 19.83 60.11 19.83L60.11 19.83L57.73 19.44Q55.60 20.93 52.07 20.93L52.07 20.93Q51.10 20.93 49.43 20.80L49.43 20.80L47.30 20.73L43.57 20.80Q40.16 20.80 37.91 20.12Q35.65 19.44 35.65 17.51L35.65 17.51L35.65 11.08L35.33 11.08ZM39.39-17.56Q39.26-17.17 38.61-15.89L38.61-15.89Q37.78-14.60 37.78-13.63L37.78-13.63Q39.52-13.63 40.32-13.92Q41.12-14.21 41.12-15.57L41.12-15.57Q41.12-20.71 39.90-20.71L39.90-20.71Q39.64-20.71 37.52-20.26L37.52-20.26Q37.65-17.88 38.36-17.88L38.36-17.88Q38.55-17.88 38.68-17.95Q38.81-18.01 38.94-18.01L38.94-18.01Q39.19-18.01 39.39-17.56L39.39-17.56ZM38.94-13.12Q38.23-13.12 37.84-12.73L37.84-12.73L38.23-12.67Q38.61-12.67 38.81-12.73Q39.00-12.80 39.13-13.12L39.13-13.12L38.94-13.12ZM39.39-9.58Q38.42-9.58 38.10-9.32Q37.78-9.07 37.78-8.23L37.78-8.23Q37.78-7.33 37.84-7.13L37.84-7.13Q39.45-7.65 40.29-9.39Q41.12-11.12 41.12-12.93L41.12-12.93Q40.22-12.93 39.32-12.12Q38.42-11.32 38.23-11.19L38.23-11.19Q38.23-10.67 38.84-10.42Q39.45-10.16 39.45-9.77L39.45-9.77L39.39-9.58ZM37.84-5.27Q38.23-5.14 39.13-5.14L39.13-5.14Q40.55-5.14 40.93-5.88Q41.32-6.62 41.32-8.36L41.32-8.36L40.67-8.36L37.84-5.27ZM37.84-3.53Q38.36-3.53 38.90-3.66Q39.45-3.79 39.45-4.17L39.45-4.17L39.39-4.37L37.84-3.98L37.84-3.53ZM40.67-3.72Q40.35-3.72 39.61-2.95Q38.87-2.18 38.68-1.99L38.68-1.99L40.67-1.99L40.67-3.72ZM38.23 0.14Q38.68 0.14 39.00-0.28Q39.32-0.70 39.39-0.76L39.39-0.76L38.23-0.76L38.23 0.14ZM39.19 3.36Q39.19 3.81 38.90 4.29Q38.61 4.77 38.55 4.84L38.55 4.84Q38.23 5.29 38.00 5.80Q37.78 6.32 37.78 6.83L37.78 6.83Q39.71 6.83 40.22 5.70Q40.74 4.58 40.74 2.39L40.74 2.39L40.67-0.44Q40.42-0.25 39.71 0.23Q39.00 0.72 38.61 1.30Q38.23 1.88 38.23 2.58L38.23 2.58Q38.23 2.84 38.71 3.00Q39.19 3.16 39.19 3.36L39.19 3.36ZM37.07 11.92Q37.07 12.17 37.30 12.75Q37.52 13.33 37.52 13.46L37.52 13.46Q37.52 13.97 37.84 15.91L37.84 15.91Q39.06 15.26 39.84 14.30L39.84 14.30Q38.94 13.91 38.68 13.46L38.68 13.46Q39.06 13.46 39.48 13.27Q39.90 13.07 39.90 12.94L39.90 12.94Q39.90 12.69 39.39 12.30L39.39 12.30Q39.39 12.11 39.71 11.46Q40.03 10.82 40.03 10.31L40.03 10.31L38.23 10.31Q39.52 10.11 39.93 9.34Q40.35 8.57 40.35 7.09L40.35 7.09Q38.74 7.09 38.04 7.57Q37.33 8.05 37.20 8.92Q37.07 9.79 37.07 11.92L37.07 11.92ZM37.84 16.68Q40.29 16.68 40.29 15.91L40.29 15.91Q40.29 15.71 40.13 15.39Q39.97 15.07 39.84 15.00L39.84 15.00L37.84 16.68ZM37.84 17.84Q37.91 18.29 38.74 18.29L38.74 18.29Q39.90 18.29 40.42 18.03Q40.93 17.77 41.45 16.68L41.45 16.68L41.06 16.61Q40.03 16.61 39.10 16.87Q38.16 17.13 37.84 17.84L37.84 17.84ZM40.93 18.03Q41.77 18.03 42.70 18.19Q43.63 18.35 43.83 18.67L43.83 18.67Q44.41 18.67 45.08 17.90Q45.76 17.13 45.82 17.06L45.82 17.06L45.50 17.06Q44.54 17.06 43.83 17.51L43.83 17.51L43.83 16.81Q40.93 16.81 40.93 18.03L40.93 18.03ZM51.10 16.81Q46.08 16.81 46.08 18.80L46.08 18.80Q47.95 18.80 48.59 17.84L48.59 17.84Q48.65 18.09 49.01 18.38Q49.36 18.67 49.49 18.67L49.49 18.67Q50.01 18.67 50.55 18.00Q51.10 17.32 51.10 16.81L51.10 16.81ZM50.58 18.67L51.23 18.74Q51.42 18.74 52.03 18.48Q52.64 18.22 52.97 18.22L52.97 18.22Q53.03 18.29 53.16 18.45Q53.29 18.61 53.35 18.67L53.35 18.67Q54.70 18.67 57.25 18.19Q59.79 17.71 59.79 17.00L59.79 17.00Q58.44 17.00 55.86 17.26L55.86 17.26Q53.16 17.51 51.74 17.51L51.74 17.51L50.58 18.67Z"/></g><g xml:space="preserve" style="stroke: rgb(64,10,114); stroke-width: 0; stroke-dasharray:none; stroke-linecap: butt; stroke-dashoffset: 0; stroke-linejoin: miter; stroke-miterlimit: 4; fill: rgb(168,9,196); fill-rule: nonzero; opacity: 1; white-space: pre;"><path style="fill: rgb(245,166,35);" d="M81.09 20.54Q80.64 20.54 79.96 20.35Q79.29 20.15 78.52 20.15L78.52 20.15Q75.56 20.15 75.56 18.54L75.56 18.54L75.56 5.09Q75.43 5.03 75.07 4.67Q74.72 4.32 74.72 4.00L74.72 4.00Q74.72 3.61 75.17 2.62Q75.62 1.62 75.62 0.91L75.62 0.91Q75.62-0.51 75.23-1.21Q74.85-1.92 73.88-2.89L73.88-2.89Q73.11-3.53 72.40-4.43L72.40-4.43Q71.57-5.46 70.21-7.55Q68.86-9.64 68.86-10.16L68.86-10.16Q68.22-10.16 67.86-10.61Q67.51-11.06 67.12-11.96L67.12-11.96Q66.74-12.80 66.42-13.25L66.42-13.25Q65.77-14.02 64.78-15.02Q63.78-16.02 63.65-16.02L63.65-16.02L61.53-16.02Q61.53-16.47 62.20-16.76Q62.88-17.05 62.88-17.37L62.88-17.37Q62.88-18.14 62.17-18.98L62.17-18.98Q62.10-19.11 61.85-19.52Q61.59-19.94 61.59-20.39L61.59-20.39Q61.59-20.71 63.59-21.13Q65.58-21.55 66.67-21.55L66.67-21.55Q67.00-21.55 67.80-20.42Q68.60-19.30 70.21-16.79L70.21-16.79Q73.43-11.77 75.72-8.90Q78.00-6.04 79.67-6.04L79.67-6.04Q80.38-6.04 81.57-7.84Q82.76-9.64 84.89-13.25L84.89-13.25Q85.27-13.83 86.27-15.50Q87.27-17.17 87.94-18.17Q88.62-19.17 89.07-19.56L89.07-19.56Q89.39-19.36 89.52-19.04Q89.65-18.72 89.81-18.53Q89.97-18.33 90.42-18.33L90.42-18.33Q91.07-18.33 91.48-18.62Q91.90-18.91 92.16-19.56L92.16-19.56Q91.90-20.01 91.45-20.23Q91.00-20.46 90.74-20.71Q90.49-20.97 90.49-21.55L90.49-21.55L95.83-21.55Q95.96-21.55 96.09-21.20Q96.21-20.84 96.21-20.52L96.21-20.52Q96.21-20.26 95.83-20.01Q95.44-19.75 94.99-19.56L94.99-19.56Q93.96-18.98 93.83-18.78L93.83-18.78Q91.26-14.92 89.04-11.32Q86.82-7.71 86.30-6.49L86.30-6.49Q85.92-5.85 84.76-4.43L84.76-4.43Q83.54-3.02 82.92-1.92Q82.31-0.83 82.31 0.52L82.31 0.52Q82.31 0.72 82.63 1.04L82.63 1.04L82.31 1.49L82.31 14.55Q81.80 15.78 81.80 17.84L81.80 17.84Q81.80 19.06 81.93 20.09L81.93 20.09Q81.80 20.22 81.54 20.38Q81.28 20.54 81.09 20.54L81.09 20.54ZM64.81-17.69L65.45-17.62L65.77-17.62Q67.25-17.62 67.25-18.14L67.25-18.14Q67.25-18.98 66.29-19.27Q65.32-19.56 64.42-19.56L64.42-19.56Q64.16-19.56 63.20-19.23L63.20-19.23L63.13-19.04Q63.13-18.59 63.36-18.24Q63.59-17.88 63.97-17.88L63.97-17.88Q64.68-17.88 65.26-18.40L65.26-18.40L64.81-17.69ZM65.58-16.40Q65.64-16.34 66.03-15.95Q66.42-15.57 66.67-15.57L66.67-15.57Q67.32-15.57 68.03-17.17L68.03-17.17L67.58-17.17Q67.12-17.17 66.45-16.98Q65.77-16.79 65.58-16.40L65.58-16.40ZM68.03-13.63L68.22-13.57Q68.48-13.57 69.06-14.15Q69.63-14.73 69.96-14.79L69.96-14.79Q69.76-15.24 69.18-15.63Q68.60-16.02 68.41-16.02L68.41-16.02L67.19-14.66L68.41-14.66L68.03-13.63ZM84.31-7.52Q84.69-7.52 87.14-11.77L87.14-11.77L88.30-13.63Q88.62-14.09 89.10-14.83Q89.59-15.57 89.91-16.02L89.91-16.02Q88.81-16.02 88.36-15.53Q87.91-15.05 87.62-14.15Q87.33-13.25 87.14-12.86L87.14-12.86Q86.56-11.90 85.72-10.61Q84.89-9.32 84.31-8.49L84.31-8.49L84.31-7.52ZM69.96-10.87Q70.02-10.74 71.11-9.84L71.11-9.84Q72.27-8.87 72.85-8.23Q73.43-7.59 73.43-6.75L73.43-6.75Q74.40-6.75 74.40-7.65L74.40-7.65Q74.40-7.97 73.95-8.58Q73.50-9.19 73.50-9.45L73.50-9.45Q73.50-9.64 73.56-9.71L73.56-9.71Q71.31-11.32 70.86-13.25L70.86-13.25L70.21-13.25Q70.21-13.25 70.28-13.35Q70.34-13.44 70.34-13.57L70.34-13.57Q70.34-13.63 70.09-13.80Q69.83-13.96 69.63-14.02L69.63-14.02Q69.38-14.02 69.12-13.54Q68.86-13.06 68.80-12.86L68.80-12.86Q68.80-12.48 68.99-12.28Q69.18-12.09 69.67-11.83Q70.15-11.58 70.15-11.32L70.15-11.32Q70.15-11.19 69.96-10.87L69.96-10.87ZM74.91-7.01Q74.65-7.01 74.49-6.72Q74.33-6.43 74.33-6.04L74.33-6.04L74.40-5.65Q74.72-5.65 75.17-5.88Q75.62-6.10 75.62-6.23L75.62-6.23Q75.62-6.43 75.39-6.72Q75.17-7.01 74.91-7.01L74.91-7.01ZM84.05-7.01Q83.41-7.01 82.83-6.27Q82.25-5.53 82.25-4.88L82.25-4.88L82.63-4.88Q82.76-4.88 83.92-6.49L83.92-6.49L84.05-7.01ZM75.88-4.88Q75.88-4.17 76.33-4.11L76.33-4.11Q76.78-4.17 76.78-4.88L76.78-4.88L75.88-4.88ZM80.90 0.91Q80.38 0.91 80.19 1.26Q80.00 1.62 79.87 2.45L79.87 2.45Q79.67 3.48 79.38 4.16Q79.10 4.84 78.32 5.42L78.32 5.42L80.38 5.42Q80.58 5.22 80.74 3.74Q80.90 2.26 80.90 0.91L80.90 0.91ZM78.97 7.41Q78.00 7.41 77.65 7.80Q77.29 8.18 77.29 9.21L77.29 9.21Q78.13 9.21 78.71 8.73Q79.29 8.25 79.55 7.47L79.55 7.47L78.97 7.41ZM78.90 11.40Q78.39 11.40 78.13 11.56Q77.87 11.72 77.87 12.24L77.87 12.24Q78.90 12.04 78.90 11.40L78.90 11.40ZM80.70 12.24Q79.93 12.37 79.55 13.01L79.55 13.01Q80.19 13.01 80.48 12.91Q80.77 12.82 80.77 12.37L80.77 12.37L80.70 12.24ZM77.87 14.94L77.87 16.16L79.16 14.94L77.87 14.94Z"/></g><g xml:space="preserve" style="stroke: rgb(64,10,114); stroke-width: 0; stroke-dasharray:none; stroke-linecap: butt; stroke-dashoffset: 0; stroke-linejoin: miter; stroke-miterlimit: 4; fill: rgb(168,9,196); fill-rule: nonzero; opacity: 1; white-space: pre;"><path style="white-space: pre;" d=""/><path style="white-space: pre;" d="M150.92-14.60Q152.14-13.76 153.27-11.38Q154.39-9.00 155.10-6.20Q155.81-3.40 155.81-1.66L155.81-1.66Q155.81 1.94 154.94 5.03Q154.07 8.12 152.14 11.27L152.14 11.27Q151.95 11.53 151.75 12.04Q151.56 12.56 151.30 12.91Q151.05 13.27 150.60 13.27L150.60 13.27L150.92 13.65L150.15 14.10L150.60 14.36Q149.57 15.84 146.86 16.90Q144.16 17.96 141.91 18.42L141.91 18.42Q139.59 18.67 127.23 19.64L127.23 19.64L121.64 20.02Q120.93 20.09 120.16 20.47L120.16 20.47Q119.51 20.86 118.93 20.86L118.93 20.86Q118.42 20.86 118.19 20.73Q117.97 20.60 117.97 20.02L117.97 20.02L117.90 13.40Q117.90 10.69 118.16 5.42L118.16 5.42Q118.42-0.12 118.42-2.82L118.42-2.82Q118.42-3.66 118.16-5.20L118.16-5.20Q117.90-6.75 117.90-7.52L117.90-7.52Q117.90-8.81 118.10-10.29Q118.29-11.77 118.35-12.22L118.35-12.22Q118.80-14.79 118.80-16.72L118.80-16.72Q118.80-17.62 118.61-18.46L118.61-18.46Q118.42-20.01 118.42-20.13L118.42-20.13Q118.42-21.87 134.31-21.87L134.31-21.87L137.85-21.87Q139.98-21.62 142.81-20.39Q145.64-19.17 147.96-17.53Q150.27-15.89 150.92-14.60L150.92-14.60ZM135.47-20.07L130.71-19.75Q130.90-19.36 131.80-19.14Q132.70-18.91 133.09-18.91L133.09-18.91Q133.54-18.91 135.86-20.07L135.86-20.07L135.47-20.07ZM138.24-19.36Q137.53-19.36 137.08-18.91L137.08-18.91L137.08-19.81Q136.89-19.81 136.28-19.52Q135.67-19.23 135.47-18.91L135.47-18.91Q135.73-18.59 136.41-18.40Q137.08-18.20 137.72-18.20L137.72-18.20Q137.98-18.27 138.43-18.46Q138.88-18.65 139.08-18.91L139.08-18.91Q138.95-19.23 138.75-19.30Q138.56-19.36 138.24-19.36L138.24-19.36ZM124.92-19.36Q124.60-19.36 123.18-19.39Q121.76-19.43 121.02-18.78Q120.28-18.14 120.28-16.79L120.28-16.79Q121.31-16.79 123.89-17.79Q126.46-18.78 127.17-19.36L127.17-19.36L124.92-19.36ZM143.45-17.37Q143.45-17.95 142.17-18.24Q140.88-18.53 140.23-18.53L140.23-18.53Q139.91-18.40 139.33-18.14Q138.75-17.88 138.63-17.69L138.63-17.69Q139.78-16.98 141.52-16.98L141.52-16.98Q141.52-15.69 143.26-15.69L143.26-15.69Q144.10-15.69 144.16-16.14L144.16-16.14L144.16-14.92L146.22-14.92L145.38-14.15Q145.70-14.21 147.12-12.86Q148.54-11.51 148.54-11.19L148.54-11.19L149.37-11.19Q149.24-10.93 148.99-10.64Q148.73-10.35 148.60-10.22L148.60-10.22Q148.92-9.84 149.18-9.32Q149.44-8.81 149.50-8.61L149.50-8.61Q150.15-7.20 150.92-6.62L150.92-6.62Q150.08-6.62 150.08-5.91L150.08-5.91Q150.08-5.33 150.31-5.14Q150.53-4.95 151.14-4.85Q151.75-4.75 151.75-3.92L151.75-3.92Q151.75-3.85 151.30-3.63Q150.85-3.40 150.85-3.34L150.85-3.34Q150.85-3.27 150.92-3.27L150.92-3.27Q150.92-2.18 151.88-2.18L151.88-2.18Q153.43-2.18 153.43-2.89L153.43-2.89Q153.43-3.02 152.14-3.66L152.14-3.66L154.20-3.66L154.20-4.24L152.59-5.08Q152.72-5.08 152.85-5.30Q152.98-5.53 152.98-5.65L152.98-5.65Q152.98-5.91 152.62-6.01Q152.27-6.10 152.14-6.17L152.14-6.17Q152.66-6.49 152.82-6.75Q152.98-7.01 152.98-7.46L152.98-7.46Q152.98-8.23 152.14-8.23L152.14-8.23Q151.43-8.23 150.98-7.84L150.98-7.84Q151.30-8.10 151.75-9.00L151.75-9.00Q151.75-10.74 150.56-12.28Q149.37-13.83 148.15-15.02Q146.93-16.21 146.54-16.60L146.54-16.60L146.22-16.60L143.45-17.37ZM145.83-10.93Q145.58-11.00 145.09-11.06Q144.61-11.12 144.32-11.32Q144.03-11.51 144.03-11.96L144.03-11.96Q144.03-12.35 144.16-12.61L144.16-12.61Q143.26-13.12 141.81-14.05Q140.36-14.99 139.85-15.37L139.85-15.37Q136.82-16.40 134.99-16.88Q133.16-17.37 131.10-17.37L131.10-17.37Q129.62-17.37 127.11-16.98Q124.60-16.60 124.40-16.14L124.40-16.14L123.95-15.37Q123.95-11.83 123.89-9.19Q123.82-6.56 123.76-4.75L123.76-4.75Q123.50 2.45 123.50 5.99L123.50 5.99L123.50 8.05Q123.50 13.85 123.95 14.10L123.95 14.10L124.72 14.36Q125.37 14.43 126.53 14.49Q127.68 14.55 128.52 14.55L128.52 14.55Q134.70 14.55 139.08 13.59Q143.45 12.62 146.22 9.28L146.22 9.28L146.35 9.34Q146.99 9.34 147.70 7.22Q148.41 5.09 148.89 2.45Q149.37-0.18 149.37-1.28L149.37-1.28Q149.37-2.24 148.79-4.56Q148.21-6.88 147.38-8.78Q146.54-10.67 145.83-10.93L145.83-10.93ZM120.03-13.38Q120.03-13.12 120.19-12.61Q120.35-12.09 120.35-11.70L120.35-11.70Q120.35-10.93 119.77-9.84L119.77-9.84L122.41-9.84Q122.41-10.35 122.02-11.25L122.02-11.25Q121.57-12.15 121.57-12.80L121.57-12.80Q121.57-13.18 121.76-13.83Q121.96-14.47 121.96-14.92L121.96-14.92L121.96-15.37Q121.96-16.21 121.64-16.60L121.64-16.60Q120.03-15.95 120.03-13.38L120.03-13.38ZM121.89-5.40Q121.89-5.91 121.38-6.30Q120.86-6.68 120.35-6.81L120.35-6.81L122.47-6.81Q122.41-7.20 122.25-8.10Q122.09-9.00 121.89-9.00L121.89-9.00L119.83-9.00Q119.83-7.07 120.16-4.69L120.16-4.69Q120.41-2.11 120.41-0.70L120.41-0.70L121.89-0.70L121.89-5.40ZM150.98-7.84L150.92-7.78L150.98-7.84ZM154.33-2.31Q152.98-2.31 151.85-0.92Q150.72 0.46 150.72 1.81L150.72 1.81Q152.53 1.81 153.43 0.72Q154.33-0.38 154.33-2.31L154.33-2.31ZM145.13 15.45Q145.13 15.33 144.80 15.13Q144.48 14.94 144.16 14.81L144.16 14.81Q147.06 14.81 148.60 13.65L148.60 13.65Q148.54 13.46 147.67 13.07Q146.80 12.69 146.03 12.69L146.03 12.69Q145.64 12.69 144.45 13.72Q143.26 14.75 143.07 14.81L143.07 14.81Q141.52 15.45 139.53 15.65Q137.53 15.84 134.44 15.91L134.44 15.91L132.64 15.97Q131.61 16.10 129.71 16.23Q127.81 16.36 126.72 16.42L126.72 16.42Q125.18 16.42 123.50 16.19Q121.83 15.97 121.64 15.26L121.64 15.26L121.57 13.85Q121.57 12.88 121.73 12.24Q121.89 11.59 121.89 11.27L121.89 11.27Q121.89 10.89 121.70 10.37Q121.51 9.86 121.18 9.66L121.18 9.66Q121.51 9.53 121.70 8.44Q121.89 7.35 121.89 6.90L121.89 6.90Q121.89 5.87 121.70 4.90L121.70 4.90Q121.57 3.74 121.57 3.23L121.57 3.23Q121.57 2.58 121.76 2.13Q121.96 1.68 121.96 1.36L121.96 1.36Q121.96 0.52 121.51 0.17Q121.06-0.18 120.09-0.18L120.09-0.18Q120.09 2.45 120.03 4.00Q119.96 5.54 119.58 6.90L119.58 6.90L120.03 7.28L120.03 10.05Q119.90 10.05 119.74 10.21Q119.58 10.37 119.58 10.43L119.58 10.43Q119.64 10.82 119.80 11.30Q119.96 11.79 120.03 12.04L120.03 12.04Q119.96 12.37 119.80 12.85Q119.64 13.33 119.58 13.65L119.58 13.65Q119.64 13.85 119.77 14.23Q119.90 14.62 120.03 14.81L120.03 14.81Q120.03 15.65 120.35 17.58L120.35 17.58Q122.21 17.58 124.56 17.64Q126.91 17.71 127.56 18.03L127.56 18.03Q127.62 17.84 127.75 17.58Q127.88 17.32 127.94 17.19L127.94 17.19Q128.20 17.19 128.71 17.39Q129.23 17.58 129.55 17.58L129.55 17.58Q130.97 17.58 132.54 17.32Q134.12 17.06 134.57 17.00L134.57 17.00Q137.47 16.42 139.53 16.42L139.53 16.42L141.91 16.42Q142.42 15.91 143.32 15.68Q144.22 15.45 145.13 15.45L145.13 15.45ZM153.36 4.58Q153.49 3.81 153.62 3.07Q153.75 2.33 153.75 2.00L153.75 2.00Q150.92 2.00 150.92 2.91L150.92 2.91Q150.98 3.03 151.14 3.26Q151.30 3.48 151.37 3.61L151.37 3.61Q151.30 3.81 151.01 4.16Q150.72 4.51 150.60 4.58L150.60 4.58L150.92 4.90Q150.27 4.90 150.08 5.48Q149.89 6.06 149.86 6.96Q149.82 7.86 149.76 8.05L149.76 8.05Q149.76 8.18 149.34 8.60Q148.92 9.02 148.92 9.08L148.92 9.08Q148.92 9.28 148.99 9.28L148.99 9.28L146.22 12.04Q146.61 12.49 147.57 12.49L147.57 12.49Q148.99 12.49 150.18 11.59Q151.37 10.69 151.37 9.28L151.37 9.28Q151.37 8.83 151.24 8.63Q151.11 8.44 150.60 8.44L150.60 8.44Q151.63 8.44 152.27 7.80Q152.91 7.15 152.91 6.12L152.91 6.12Q152.91 5.87 152.56 5.67Q152.21 5.48 151.88 5.42Q151.56 5.35 151.37 5.29L151.37 5.29Q151.63 5.22 152.11 4.87Q152.59 4.51 152.98 4.51L152.98 4.51Q153.23 4.51 153.36 4.58L153.36 4.58ZM148.92 10.31Q149.76 10.31 149.76 10.43L149.76 10.43Q149.57 10.63 148.99 10.63L148.99 10.63Q148.15 10.63 148.15 10.43L148.15 10.43Q148.15 10.31 148.92 10.31L148.92 10.31Z"/><path style="white-space: pre;" d="M167.78-6.62Q167.78-6.23 167.62-5.69Q167.46-5.14 167.46-4.69L167.46-4.69Q167.78-1.47 167.78-0.25L167.78-0.25L167.78 21.12Q167.78 21.31 167.68 21.57Q167.59 21.83 167.46 21.95L167.46 21.95Q166.30 21.95 165.46 20.73L165.46 20.73L165.08 21.12L161.86 21.12L161.47 20.73L161.47 15.97Q161.41 15.65 161.28 15.17Q161.15 14.68 161.09 14.36L161.09 14.36Q161.09 13.65 161.28 12.11L161.28 12.11L161.47 9.60Q161.47 5.67 161.22-3.47L161.22-3.47L161.09-9.00L161.15-10.42L160.96-12.54Q160.31-18.53 160.31-21.36L160.31-21.36Q160.31-21.74 162.31-21.94Q164.30-22.13 165.27-22.13L165.27-22.13Q167.46-22.13 167.46-20.97L167.46-20.97Q167.46-20.52 167.07-20.17Q166.69-19.81 166.62-19.75L166.62-19.75Q166.62-17.95 166.88-15.82Q167.14-13.70 167.20-13.18L167.20-13.18Q167.78-9.26 167.78-6.62L167.78-6.62ZM163.47-19.81Q162.31-19.81 162.31-19.36L162.31-19.36Q162.31-19.04 162.44-18.56Q162.57-18.08 162.70-17.75L162.70-17.75L163.40-18.20L163.40-17.95L163.40-17.75Q163.40-17.62 162.70-16.21L162.70-16.21L163.08-16.14Q165.14-16.14 165.14-17.88L165.14-17.88Q165.14-18.85 164.75-19.33Q164.37-19.81 163.47-19.81L163.47-19.81ZM163.08-13.76Q163.73-13.76 164.24-14.50Q164.75-15.24 164.75-15.82L164.75-15.82Q164.18-15.82 163.40-15.37Q162.63-14.92 162.63-14.41L162.63-14.41Q162.63-14.21 162.79-13.99Q162.95-13.76 163.08-13.76L163.08-13.76ZM165.08-14.60Q164.95-14.41 164.14-13.86Q163.34-13.31 163.34-12.99L163.34-12.99L165.08-12.99L165.08-14.60ZM165.46-11.83Q165.46-12.22 164.50-12.22L164.50-12.22Q163.21-12.22 162.95-11.96Q162.70-11.70 162.70-11.00L162.70-11.00L162.70-10.61Q162.70-10.10 162.89-9.35Q163.08-8.61 163.27-8.61L163.27-8.61Q164.11-8.61 164.79-9.74Q165.46-10.87 165.46-11.83L165.46-11.83ZM165.98-8.16L165.98-8.36Q165.98-9.32 165.46-9.39L165.46-9.39Q165.40-9.32 164.53-8.58Q163.66-7.84 163.40-7.07L163.40-7.07L164.30-7.07Q165.14-7.07 165.56-7.26Q165.98-7.46 165.98-8.16L165.98-8.16ZM162.70-2.24Q163.79-2.57 164.85-3.69Q165.91-4.82 165.91-5.91L165.91-5.91Q165.91-6.30 165.08-6.30L165.08-6.30Q164.50-6.30 163.82-6.07Q163.15-5.85 163.08-5.46L163.08-5.46L162.70-2.24ZM166.04-0.96Q166.04-2.18 165.95-2.82Q165.85-3.47 165.46-3.47L165.46-3.47L163.40-1.41Q163.40-1.21 164.34-1.09Q165.27-0.96 166.04-0.96L166.04-0.96ZM163.40-0.25Q163.34-0.06 163.21 0.36Q163.08 0.78 163.08 1.10L163.08 1.10Q163.08 1.55 163.27 1.84Q163.47 2.13 163.66 2.13L163.66 2.13Q164.30 2.13 165.01 1.30Q165.72 0.46 165.72-0.25L165.72-0.25L163.40-0.25ZM165.91 1.36Q165.08 1.68 164.40 2.39Q163.73 3.10 163.40 3.61L163.40 3.61L163.85 4.06L165.91 3.61L165.91 1.36ZM165.91 4.45Q164.37 4.45 163.85 4.93Q163.34 5.42 163.34 6.83L163.34 6.83L163.85 6.83L165.91 4.84L165.91 4.45ZM166.23 6.44Q166.17 6.38 166.01 6.19Q165.85 5.99 165.66 5.99L165.66 5.99Q165.01 5.99 164.37 6.96Q163.73 7.92 163.73 8.57L163.73 8.57Q165.21 8.57 165.72 8.21Q166.23 7.86 166.23 6.44L166.23 6.44ZM166.30 12.75L166.30 12.37Q166.30 11.14 165.66 11.14L165.66 11.14Q165.46 11.21 164.98 11.53Q164.50 11.85 164.30 12.04L164.30 12.04Q164.50 11.72 165.27 10.82Q166.04 9.92 166.23 9.28L166.23 9.28L163.15 9.28Q163.15 10.24 162.89 12.04L162.89 12.04Q162.63 13.97 162.63 15.00L162.63 15.00L162.70 17.58Q162.95 18.35 163.31 18.58Q163.66 18.80 164.50 18.80L164.50 18.80L165.91 18.80Q166.30 17.58 166.30 16.29L166.30 16.29Q166.30 15.91 166.11 15.45Q165.91 15.00 165.91 14.81L165.91 14.81Q165.91 14.62 166.11 14.14Q166.30 13.65 166.30 12.75L166.30 12.75ZM164.30 12.04L164.30 12.04ZM163.85 14.04Q164.18 13.78 164.40 13.68Q164.63 13.59 165.08 13.59L165.08 13.59L165.46 13.65Q165.21 13.65 164.69 13.85Q164.18 14.04 163.85 14.04L163.85 14.04Z"/></g></g>
<g transform="matrix(1 0 0 1 70.58143179578455 72.97855647268557)" id="uidalf8bi6z1">
<path style="stroke: rgb(1,84,140); stroke-width: 0; stroke-dasharray:none; stroke-linecap: butt; stroke-dashoffset: 0; stroke-linejoin: miter; stroke-miterlimit: 4; fill: rgb(15,162,173); fill-rule: nonzero; opacity: 1;" transform=" translate(-29.99992499999999, -30.000155)" d="M 72.15292 -36.55375 c 13.45279 0 24.40091 10.94578 24.40091 24.40091 v 84.30599 c 0 13.45497 -10.94818 24.40091 -24.40091 24.40091 h -84.30599 c -13.45497 0 -24.40091 -10.94578 -24.40091 -24.39853 v -84.30809 c 0 -13.45497 10.94578 -24.40091 24.40091 -24.40091 z" stroke-linecap="round"/>
</g>
<g transform="matrix(1 0 0 1 97.56858365300954 101.6019396775162)" id="uidshx0gvegz">
<path style="stroke: rgb(2,73,102); stroke-width: 0; stroke-dasharray:none; stroke-linecap: butt; stroke-dashoffset: 0; stroke-linejoin: miter; stroke-miterlimit: 4; fill: rgb(237,18,182); fill-rule: nonzero; opacity: 1;" transform=" translate(-17.499999999999996, -17.499999999999996)" d="M 17.5 -12.6758 c 16.72589 0 30.1758 13.4497 30.1758 30.1758 c 0 16.72589 -13.4497 30.1758 -30.1758 30.1758 c -16.72589 0 -30.1758 -13.4497 -30.1758 -30.1758 c 0 -16.72589 13.4497 -30.1758 30.1758 -30.1758 z" stroke-linecap="round"/>
</g>
<g transform="matrix(1 0 0 1 39.487329999999986 100.5275697753574)" id="uid55ulftzy4">
<path style="stroke: rgb(8,142,17); stroke-width: 0; stroke-dasharray:none; stroke-linecap: butt; stroke-dashoffset: 0; stroke-linejoin: miter; stroke-miterlimit: 4; fill: rgb(248,231,28); fill-rule: nonzero; opacity: 1;" transform=" translate(-16.5, -16.5)" d="M 17.36402 -12.01267 l 27.64865 57.02534 h -57.02534 z" stroke-linecap="round"/>
</g>
<g transform="matrix(1 0 0 1 98.0511640259293 40.36607079706039)" id="uidjbfltu2wq">
<path style="stroke: rgb(4,119,33); stroke-width: 0; stroke-dasharray:none; stroke-linecap: butt; stroke-dashoffset: 0; stroke-linejoin: miter; stroke-miterlimit: 4; fill: rgb(184,233,134); fill-rule: nonzero; opacity: 1;" transform=" translate(-20.971385900921128, -20.499985000000002)" d="M 37.79815 49.91087 c 0.57394 0 1.14779 -0.14349 1.72156 -0.71741 c 1.00438 -0.57394 1.43459 -1.86502 1.14779 -3.01289 l -4.01704 -17.78991 l 13.34243 -11.90785 c 0.8609 -0.8609 1.2911 -2.0085 0.8609 -3.15638 c -0.28698 -1.14779 -1.2911 -1.86502 -2.43896 -2.0085 l -17.78991 -1.57806 l -6.88643 -16.78577 c -0.43046 -1.14779 -1.57806 -1.86502 -2.72594 -1.86502 c -1.14779 0 -2.29548 0.71741 -2.58246 1.86502 l -7.02991 16.78577 l -17.93338 1.43459 c -1.14779 0.14349 -2.0085 0.8609 -2.43896 2.0085 c -0.28698 1.14779 0 2.43896 0.8609 3.15638 l 13.4859 12.05133 l -4.01704 17.93338 c -0.28698 1.14779 0.14349 2.29548 1.14779 3.01289 c 0.8609 0.71741 2.15199 0.71741 3.15638 0.14349 l 15.35101 -9.46888 l 15.20765 9.46888 c 0.57394 0.28698 1.00438 0.43046 1.57806 0.43046 z" stroke-linecap="round"/>
</g>
</svg>